<svg width="81" height="80" viewBox="0 0 81 80" fill="none" xmlns="http://www.w3.org/2000/svg">
<ellipse cx="40.6844" cy="39.8412" rx="40.159" ry="39.8412" fill="#015AB9"/>
<path d="M53.7744 25.8153L53.1959 30.263C51.7819 30.1673 50.6892 30.4224 49.9179 31.0281C49.1466 31.6339 48.6324 32.4788 48.3753 33.5628C48.1182 34.6469 48.07 35.8744 48.2307 37.2453H53.7744V48.7711H43.1209V36.2888C43.1209 32.5266 44.0207 29.6891 45.8204 27.7761C47.6522 25.8312 50.3036 25.1776 53.7744 25.8153ZM38.927 25.8153L38.3485 30.263C36.9344 30.1673 35.8418 30.4224 35.0705 31.0281C34.2992 31.6339 33.785 32.4788 33.5279 33.5628C33.2708 34.6469 33.2226 35.8744 33.3833 37.2453H38.927V48.7711H28.2734V36.2888C28.2734 32.5266 29.1733 29.6891 30.973 27.7761C32.8048 25.8312 35.4561 25.1776 38.927 25.8153Z" fill="white"/>
</svg>
