<svg width="180" height="77" viewBox="0 0 180 77" fill="none" xmlns="http://www.w3.org/2000/svg">
<path d="M5.68359 18.5078V23.7812C5.68359 24.0156 5.73828 24.1992 5.84766 24.332C5.96484 24.457 6.16016 24.5547 6.43359 24.625V25H1.44141V24.625C1.72266 24.5469 1.91797 24.4453 2.02734 24.3203C2.13672 24.1953 2.19141 24.0156 2.19141 23.7812V10.2344C2.19141 9.99219 2.13672 9.80859 2.02734 9.68359C1.91797 9.55859 1.72266 9.45703 1.44141 9.37891V9.00391H11.4258C12.5898 9.00391 13.5117 9.08203 14.1914 9.23828C14.8789 9.39453 15.4844 9.66406 16.0078 10.0469C16.5469 10.4453 16.9688 10.9688 17.2734 11.6172C17.5781 12.2891 17.7305 13 17.7305 13.75C17.7305 14.8281 17.4414 15.7734 16.8633 16.5859C16.3633 17.2812 15.6992 17.7773 14.8711 18.0742C14.0508 18.3633 12.9023 18.5078 11.4258 18.5078H5.68359ZM5.68359 15.8711H11.0156C12.0781 15.8711 12.8242 15.7578 13.2539 15.5312C13.5273 15.3828 13.7461 15.1484 13.9102 14.8281C14.082 14.5 14.168 14.1406 14.168 13.75C14.168 13.3672 14.082 13.0156 13.9102 12.6953C13.7461 12.3672 13.5273 12.1289 13.2539 11.9805C12.832 11.7539 12.0859 11.6406 11.0156 11.6406H5.68359V15.8711ZM26.2388 11.5938C28.3247 11.5938 30.063 12.125 31.4536 13.1875C33.1177 14.4688 33.9497 16.2539 33.9497 18.543C33.9497 20.6914 33.1177 22.4062 31.4536 23.6875C30.0786 24.75 28.3481 25.2812 26.2622 25.2812C24.1763 25.2812 22.4458 24.75 21.0708 23.6875C19.3989 22.4062 18.563 20.6562 18.563 18.4375C18.563 16.1953 19.3989 14.4453 21.0708 13.1875C22.4536 12.1484 24.1763 11.6172 26.2388 11.5938ZM26.2505 14.0781C24.8989 14.0781 23.7973 14.5117 22.9458 15.3789C22.1567 16.1914 21.7622 17.2109 21.7622 18.4375C21.7622 19.6562 22.1567 20.6719 22.9458 21.4844C23.7973 22.3594 24.9028 22.7969 26.2622 22.7969C27.6138 22.7969 28.7153 22.3594 29.5669 21.4844C30.3559 20.6797 30.7505 19.6836 30.7505 18.4961C30.7505 17.207 30.3559 16.168 29.5669 15.3789C28.7075 14.5273 27.602 14.0938 26.2505 14.0781ZM39.3759 22.6211H46.7236C46.9736 22.6211 47.1611 22.5664 47.2861 22.457C47.4111 22.3477 47.5166 22.1484 47.6025 21.8594H47.9189V25.75H47.6025C47.5244 25.4688 47.4189 25.2734 47.2861 25.1641C47.1611 25.0547 46.9736 25 46.7236 25H35.4853V24.6719C35.7588 24.6016 35.9502 24.5 36.0595 24.3672C36.1767 24.2344 36.2353 24.0469 36.2353 23.8047V13.0703C36.2353 12.8281 36.1806 12.6445 36.0713 12.5195C35.9619 12.3945 35.7666 12.2891 35.4853 12.2031V11.875H40.1259V12.2031C39.8447 12.2812 39.6494 12.3867 39.54 12.5195C39.4306 12.6445 39.3759 12.8281 39.3759 13.0703V22.6211ZM58.7358 21.7188H52.7006L52.0209 23.1484C51.8569 23.4922 51.7748 23.7617 51.7748 23.957C51.7748 24.332 52.0248 24.5703 52.5248 24.6719V25H47.6967V24.6719C47.9936 24.625 48.2123 24.5352 48.353 24.4023C48.5014 24.2695 48.6733 24.0078 48.8686 23.6172L53.6616 13.9141C53.8413 13.5469 53.9311 13.2266 53.9311 12.9531C53.9311 12.6328 53.7123 12.3828 53.2748 12.2031V11.875H58.3725V12.2031C57.9428 12.375 57.728 12.6406 57.728 13C57.728 13.2578 57.8256 13.5742 58.0209 13.9492L62.9897 23.3594C63.2631 23.875 63.478 24.2109 63.6342 24.3672C63.7905 24.5156 64.0288 24.6211 64.3491 24.6836V25H58.9936V24.6836C59.5014 24.5977 59.7553 24.3594 59.7553 23.9688C59.7553 23.7266 59.6577 23.4258 59.4623 23.0664L58.7358 21.7188ZM57.7866 19.8789L55.642 15.6719L53.603 19.8789H57.7866ZM68.8613 19.6094V23.8047C68.8613 24.0469 68.9159 24.2344 69.0253 24.3672C69.1347 24.4922 69.33 24.5977 69.6113 24.6836V25H64.9706V24.6719C65.2441 24.6016 65.4355 24.5 65.5448 24.3672C65.662 24.2344 65.7206 24.0469 65.7206 23.8047V13.0703C65.7206 12.8281 65.6659 12.6445 65.5566 12.5195C65.4472 12.3945 65.2519 12.2891 64.9706 12.2031V11.875H73.5722C74.6894 11.875 75.5409 11.9336 76.1269 12.0508C76.7128 12.1602 77.2363 12.3633 77.6972 12.6602C78.6425 13.2773 79.1152 14.2852 79.1152 15.6836C79.1152 16.7461 78.8222 17.5781 78.2363 18.1797C77.6581 18.7734 76.7206 19.2031 75.4238 19.4688L77.9081 22.9375C78.3613 23.5781 78.7206 24.0156 78.9863 24.25C79.2597 24.4766 79.5683 24.6211 79.912 24.6836V25H74.4042V24.6836C74.8105 24.5742 75.0136 24.3984 75.0136 24.1562C75.0136 23.9844 74.8886 23.7227 74.6386 23.3711L72.0136 19.6094H68.8613ZM68.8613 17.2305H73.5956C74.3144 17.2305 74.8456 17.1523 75.1894 16.9961C75.6738 16.7852 75.9159 16.3672 75.9159 15.7422C75.9159 15.1875 75.7441 14.8008 75.4003 14.582C75.0644 14.3633 74.4628 14.2539 73.5956 14.2539H68.8613V17.2305ZM84.9047 13.0703V23.8047C84.9047 24.0469 84.9594 24.2344 85.0687 24.3672C85.1781 24.4922 85.3734 24.5977 85.6547 24.6836V25H81.0141V24.6719C81.2875 24.6016 81.4789 24.5 81.5883 24.3672C81.7055 24.2344 81.7641 24.0469 81.7641 23.8047V13.0703C81.7641 12.8281 81.7094 12.6445 81.6 12.5195C81.4906 12.3945 81.2953 12.2891 81.0141 12.2031V11.875H85.6547V12.2031C85.3734 12.2812 85.1781 12.3867 85.0687 12.5195C84.9594 12.6445 84.9047 12.8281 84.9047 13.0703ZM100.116 13.0586L98.5341 16.1172L98.2528 15.9648C98.2528 15.707 98.1708 15.5039 98.0067 15.3555C97.5614 14.957 96.9052 14.6289 96.038 14.3711C95.1708 14.1133 94.2919 13.9844 93.4013 13.9844C92.6434 13.9844 91.9716 14.0898 91.3856 14.3008C90.5419 14.6055 90.12 15.0469 90.12 15.625C90.12 16.0078 90.3231 16.2812 90.7294 16.4453C91.1356 16.6016 91.9208 16.7266 93.0848 16.8203L94.9364 16.9609C96.5536 17.0859 97.7841 17.3984 98.6278 17.8984C99.0966 18.1797 99.4833 18.5547 99.788 19.0234C100.171 19.6094 100.362 20.2695 100.362 21.0039C100.362 22.3398 99.7606 23.3945 98.5575 24.168C97.4091 24.9102 95.8544 25.2812 93.8934 25.2812C91.9169 25.2812 90.0067 24.8633 88.163 24.0273C88.038 23.9727 87.9325 23.9453 87.8466 23.9453C87.6903 23.9453 87.5458 24.0391 87.413 24.2266L87.12 24.1094L88.4677 20.8984L88.7606 21.0156C88.7606 21.0625 88.7606 21.0938 88.7606 21.1094C88.7606 21.3125 88.8388 21.4844 88.995 21.625C89.3856 21.9688 90.0614 22.2695 91.0223 22.5273C91.9833 22.7773 92.9325 22.9023 93.87 22.9023C94.6981 22.9023 95.4403 22.793 96.0966 22.5742C96.9091 22.3086 97.3153 21.8789 97.3153 21.2852C97.3153 20.8086 97.0341 20.4766 96.4716 20.2891C96.0966 20.1641 95.4208 20.0586 94.4442 19.9727L92.6044 19.8203C91.6122 19.7422 90.8544 19.6406 90.3309 19.5156C89.8075 19.3906 89.3505 19.207 88.9598 18.9648C88.4598 18.6523 88.0692 18.2266 87.788 17.6875C87.5067 17.1484 87.3661 16.5586 87.3661 15.918C87.3661 14.4805 87.9833 13.3828 89.2177 12.625C90.3427 11.9375 91.7333 11.5938 93.3895 11.5938C94.288 11.5938 95.1239 11.6953 95.8973 11.8984C96.6786 12.0938 97.6083 12.4414 98.6864 12.9414C99.0067 13.0898 99.2294 13.1641 99.3544 13.1641C99.4794 13.1641 99.6395 13.0781 99.8348 12.9062L100.116 13.0586Z" fill="#00A84D"/>
<path d="M21.3242 31.3516L19.4141 35.1133L19.0859 34.9258C19.0938 34.8477 19.0977 34.7852 19.0977 34.7383C19.0977 34.4727 18.8711 34.1875 18.418 33.8828C17.0273 32.9141 15.3945 32.4297 13.5195 32.4297C12.6914 32.4297 11.9609 32.5312 11.3281 32.7344C10.8672 32.8906 10.4922 33.125 10.2031 33.4375C9.92188 33.75 9.78125 34.0898 9.78125 34.457C9.78125 35.0586 10.1445 35.4688 10.8711 35.6875C11.2461 35.7969 12.0508 35.9141 13.2852 36.0391L15.125 36.2266C16.2188 36.3438 17.1016 36.5039 17.7734 36.707C18.4531 36.9102 19.0547 37.1953 19.5781 37.5625C20.1094 37.9453 20.5273 38.4492 20.832 39.0742C21.1445 39.6992 21.3008 40.3672 21.3008 41.0781C21.3008 42.2031 20.9375 43.2031 20.2109 44.0781C19.5547 44.875 18.5352 45.4648 17.1523 45.8477C16.1211 46.1367 15.0156 46.2812 13.8359 46.2812C11.7188 46.2812 9.62891 45.7734 7.56641 44.7578C7.12891 44.5547 6.86719 44.4531 6.78125 44.4531C6.67969 44.4531 6.51953 44.5391 6.30078 44.7109L5.96094 44.5352L7.69531 40.6094L8.03516 40.7734C8.03516 40.8438 8.03516 40.8945 8.03516 40.9258C8.03516 41.2773 8.20312 41.6016 8.53906 41.8984C9.04688 42.3516 9.83203 42.7422 10.8945 43.0703C11.957 43.3984 12.9648 43.5625 13.918 43.5625C14.957 43.5625 15.8438 43.3867 16.5781 43.0352C16.9844 42.8398 17.3086 42.582 17.5508 42.2617C17.793 41.9336 17.9141 41.5938 17.9141 41.2422C17.9141 40.7109 17.6289 40.332 17.0586 40.1055C16.6602 39.9492 15.8555 39.8047 14.6445 39.6719L12.8398 39.4844C11.6289 39.3594 10.7734 39.2422 10.2734 39.1328C9.77344 39.0156 9.27344 38.832 8.77344 38.582C8.0625 38.2305 7.50391 37.7031 7.09766 37C6.73047 36.3672 6.54688 35.6406 6.54688 34.8203C6.54688 33.4688 7.01172 32.3516 7.94141 31.4688C9.16016 30.3047 10.9883 29.7227 13.4258 29.7227C14.4492 29.7227 15.4023 29.8281 16.2852 30.0391C17.168 30.2422 18.2695 30.6211 19.5898 31.1758C20.043 31.3555 20.3203 31.4453 20.4219 31.4453C20.5859 31.4453 20.7773 31.3555 20.9961 31.1758L21.3242 31.3516ZM30.3481 32.5938C32.4341 32.5938 34.1723 33.125 35.563 34.1875C37.227 35.4688 38.0591 37.2539 38.0591 39.543C38.0591 41.6914 37.227 43.4062 35.563 44.6875C34.188 45.75 32.4575 46.2812 30.3716 46.2812C28.2856 46.2812 26.5552 45.75 25.1802 44.6875C23.5083 43.4062 22.6723 41.6562 22.6723 39.4375C22.6723 37.1953 23.5083 35.4453 25.1802 34.1875C26.563 33.1484 28.2856 32.6172 30.3481 32.5938ZM30.3598 35.0781C29.0083 35.0781 27.9067 35.5117 27.0552 36.3789C26.2661 37.1914 25.8716 38.2109 25.8716 39.4375C25.8716 40.6562 26.2661 41.6719 27.0552 42.4844C27.9067 43.3594 29.0122 43.7969 30.3716 43.7969C31.7231 43.7969 32.8247 43.3594 33.6763 42.4844C34.4653 41.6797 34.8598 40.6836 34.8598 39.4961C34.8598 38.207 34.4653 37.168 33.6763 36.3789C32.8169 35.5273 31.7114 35.0938 30.3598 35.0781ZM43.4853 43.6211H50.833C51.083 43.6211 51.2705 43.5664 51.3955 43.457C51.5205 43.3477 51.6259 43.1484 51.7119 42.8594H52.0283V46.75H51.7119C51.6338 46.4688 51.5283 46.2734 51.3955 46.1641C51.2705 46.0547 51.083 46 50.833 46H39.5947V45.6719C39.8681 45.6016 40.0595 45.5 40.1689 45.3672C40.2861 45.2344 40.3447 45.0469 40.3447 44.8047V34.0703C40.3447 33.8281 40.29 33.6445 40.1806 33.5195C40.0713 33.3945 39.8759 33.2891 39.5947 33.2031V32.875H44.2353V33.2031C43.9541 33.2812 43.7588 33.3867 43.6494 33.5195C43.54 33.6445 43.4853 33.8281 43.4853 34.0703V43.6211ZM56.7866 34.0703V44.8047C56.7866 45.0469 56.8413 45.2344 56.9506 45.3672C57.06 45.4922 57.2553 45.5977 57.5366 45.6836V46H52.8959V45.6719C53.1694 45.6016 53.3608 45.5 53.4702 45.3672C53.5873 45.2344 53.6459 45.0469 53.6459 44.8047V34.0703C53.6459 33.8281 53.5913 33.6445 53.4819 33.5195C53.3725 33.3945 53.1772 33.2891 52.8959 33.2031V32.875H57.5366V33.2031C57.2553 33.2812 57.06 33.3867 56.9506 33.5195C56.8413 33.6445 56.7866 33.8281 56.7866 34.0703ZM72.2089 41.3008L74.1894 44.1836L73.9198 44.3828C73.7323 44.25 73.5839 44.1836 73.4745 44.1836C73.3417 44.1836 73.0331 44.3281 72.5488 44.6172C71.4784 45.2422 70.5331 45.6758 69.7128 45.918C68.8925 46.1602 67.9472 46.2812 66.8769 46.2812C64.7363 46.2812 62.9902 45.7695 61.6386 44.7461C60.873 44.1602 60.2636 43.4258 59.8105 42.543C59.3261 41.5898 59.0839 40.5547 59.0839 39.4375C59.0839 37.8984 59.5292 36.5391 60.4198 35.3594C61.8183 33.5156 63.9628 32.5938 66.8534 32.5938C67.9238 32.5938 68.873 32.7148 69.7011 32.957C70.537 33.1992 71.4863 33.6328 72.5488 34.2578C73.0331 34.5469 73.3417 34.6914 73.4745 34.6914C73.5839 34.6914 73.7323 34.625 73.9198 34.4922L74.1894 34.7031L72.2089 37.5742L71.9511 37.3867C71.9589 37.293 71.9667 37.2344 71.9745 37.2109C71.9823 37.1406 71.9863 37.0898 71.9863 37.0586C71.9863 36.6758 71.4589 36.2422 70.4042 35.7578C69.4042 35.2969 68.3964 35.0664 67.3808 35.0664C65.9589 35.0664 64.787 35.4414 63.8652 36.1914C62.8105 37.0352 62.2831 38.1172 62.2831 39.4375C62.2831 40.7656 62.8105 41.8516 63.8652 42.6953C64.7948 43.4375 65.9667 43.8086 67.3808 43.8086C68.4902 43.8086 69.5956 43.5312 70.6972 42.9766C71.5566 42.5391 71.9863 42.1562 71.9863 41.8281C71.9863 41.8125 71.9745 41.7031 71.9511 41.5L72.2089 41.3008ZM79.5219 34.0703V44.8047C79.5219 45.0469 79.5766 45.2344 79.6859 45.3672C79.7953 45.4922 79.9906 45.5977 80.2719 45.6836V46H75.6312V45.6719C75.9047 45.6016 76.0961 45.5 76.2055 45.3672C76.3227 45.2344 76.3812 45.0469 76.3812 44.8047V34.0703C76.3812 33.8281 76.3266 33.6445 76.2172 33.5195C76.1078 33.3945 75.9125 33.2891 75.6312 33.2031V32.875H80.2719V33.2031C79.9906 33.2812 79.7953 33.3867 79.6859 33.5195C79.5766 33.6445 79.5219 33.8281 79.5219 34.0703ZM89.3544 35.2539V44.8047C89.3544 45.0469 89.4091 45.2344 89.5184 45.3672C89.6278 45.4922 89.8231 45.5977 90.1044 45.6836V46H85.4638V45.6719C85.7372 45.6016 85.9286 45.5 86.038 45.3672C86.1552 45.2344 86.2138 45.0469 86.2138 44.8047V35.2539H82.3466C82.0966 35.2539 81.9052 35.3125 81.7723 35.4297C81.6473 35.5391 81.5458 35.7344 81.4677 36.0156H81.1513V32.125H81.4794C81.5497 32.3984 81.6473 32.5938 81.7723 32.7109C81.9052 32.8203 82.0966 32.875 82.3466 32.875H93.2216C93.4716 32.875 93.6591 32.8203 93.7841 32.7109C93.9169 32.6016 94.0223 32.4062 94.1005 32.125H94.4169V36.0156H94.1005C94.0223 35.7344 93.9169 35.5391 93.7841 35.4297C93.6591 35.3125 93.4716 35.2539 93.2216 35.2539H89.3544ZM102.632 32.5938C104.718 32.5938 106.456 33.125 107.847 34.1875C109.511 35.4688 110.343 37.2539 110.343 39.543C110.343 41.6914 109.511 43.4062 107.847 44.6875C106.472 45.75 104.742 46.2812 102.656 46.2812C100.57 46.2812 98.8392 45.75 97.4642 44.6875C95.7923 43.4062 94.9564 41.6562 94.9564 39.4375C94.9564 37.1953 95.7923 35.4453 97.4642 34.1875C98.847 33.1484 100.57 32.6172 102.632 32.5938ZM102.644 35.0781C101.292 35.0781 100.191 35.5117 99.3392 36.3789C98.5502 37.1914 98.1556 38.2109 98.1556 39.4375C98.1556 40.6562 98.5502 41.6719 99.3392 42.4844C100.191 43.3594 101.296 43.7969 102.656 43.7969C104.007 43.7969 105.109 43.3594 105.96 42.4844C106.749 41.6797 107.144 40.6836 107.144 39.4961C107.144 38.207 106.749 37.168 105.96 36.3789C105.101 35.5273 103.995 35.0938 102.644 35.0781ZM115.769 40.6094V44.8047C115.769 45.0469 115.824 45.2344 115.933 45.3672C116.043 45.4922 116.238 45.5977 116.519 45.6836V46H111.879V45.6719C112.152 45.6016 112.344 45.5 112.453 45.3672C112.57 45.2344 112.629 45.0469 112.629 44.8047V34.0703C112.629 33.8281 112.574 33.6445 112.465 33.5195C112.355 33.3945 112.16 33.2891 111.879 33.2031V32.875H120.48C121.598 32.875 122.449 32.9336 123.035 33.0508C123.621 33.1602 124.144 33.3633 124.605 33.6602C125.551 34.2773 126.023 35.2852 126.023 36.6836C126.023 37.7461 125.73 38.5781 125.144 39.1797C124.566 39.7734 123.629 40.2031 122.332 40.4688L124.816 43.9375C125.269 44.5781 125.629 45.0156 125.894 45.25C126.168 45.4766 126.476 45.6211 126.82 45.6836V46H121.312V45.6836C121.719 45.5742 121.922 45.3984 121.922 45.1562C121.922 44.9844 121.797 44.7227 121.547 44.3711L118.922 40.6094H115.769ZM115.769 38.2305H120.504C121.223 38.2305 121.754 38.1523 122.098 37.9961C122.582 37.7852 122.824 37.3672 122.824 36.7422C122.824 36.1875 122.652 35.8008 122.308 35.582C121.973 35.3633 121.371 35.2539 120.504 35.2539H115.769V38.2305ZM140.262 34.0586L138.68 37.1172L138.399 36.9648C138.399 36.707 138.317 36.5039 138.153 36.3555C137.707 35.957 137.051 35.6289 136.184 35.3711C135.317 35.1133 134.438 34.9844 133.547 34.9844C132.789 34.9844 132.118 35.0898 131.532 35.3008C130.688 35.6055 130.266 36.0469 130.266 36.625C130.266 37.0078 130.469 37.2812 130.875 37.4453C131.282 37.6016 132.067 37.7266 133.231 37.8203L135.082 37.9609C136.7 38.0859 137.93 38.3984 138.774 38.8984C139.243 39.1797 139.629 39.5547 139.934 40.0234C140.317 40.6094 140.508 41.2695 140.508 42.0039C140.508 43.3398 139.907 44.3945 138.703 45.168C137.555 45.9102 136 46.2812 134.039 46.2812C132.063 46.2812 130.153 45.8633 128.309 45.0273C128.184 44.9727 128.078 44.9453 127.993 44.9453C127.836 44.9453 127.692 45.0391 127.559 45.2266L127.266 45.1094L128.614 41.8984L128.907 42.0156C128.907 42.0625 128.907 42.0938 128.907 42.1094C128.907 42.3125 128.985 42.4844 129.141 42.625C129.532 42.9688 130.207 43.2695 131.168 43.5273C132.129 43.7773 133.078 43.9023 134.016 43.9023C134.844 43.9023 135.586 43.793 136.243 43.5742C137.055 43.3086 137.461 42.8789 137.461 42.2852C137.461 41.8086 137.18 41.4766 136.618 41.2891C136.243 41.1641 135.567 41.0586 134.59 40.9727L132.75 40.8203C131.758 40.7422 131 40.6406 130.477 40.5156C129.953 40.3906 129.496 40.207 129.106 39.9648C128.606 39.6523 128.215 39.2266 127.934 38.6875C127.653 38.1484 127.512 37.5586 127.512 36.918C127.512 35.4805 128.129 34.3828 129.364 33.625C130.489 32.9375 131.879 32.5938 133.535 32.5938C134.434 32.5938 135.27 32.6953 136.043 32.8984C136.825 33.0938 137.754 33.4414 138.832 33.9414C139.153 34.0898 139.375 34.1641 139.5 34.1641C139.625 34.1641 139.785 34.0781 139.981 33.9062L140.262 34.0586Z" fill="#00A84D"/>
</svg>
