<svg width="25" height="20" viewBox="0 0 25 20" fill="none" xmlns="http://www.w3.org/2000/svg">
<g clip-path="url(#clip0_105_5285)">
<path d="M21.8859 5.9275C22.8375 5.35 23.6379 4.62917 24.2902 3.79917V3.79833C23.4195 4.12417 22.4933 4.34083 21.5261 4.44583C22.5206 3.93833 23.2801 3.14083 23.637 2.18C22.7098 2.6525 21.686 2.98583 20.595 3.1725C19.7146 2.37083 18.4598 1.875 17.0909 1.875C14.4351 1.875 12.2969 3.7175 12.2969 5.97583C12.2969 6.30083 12.3291 6.61333 12.4081 6.91083C8.42042 6.74417 4.89098 5.11083 2.51982 2.62167C2.10643 3.23583 1.86268 3.93833 1.86268 4.69417C1.86268 6.11417 2.71774 7.3725 3.99399 8.10167C3.22278 8.08917 2.46717 7.8975 1.82661 7.59667V7.64167C1.82661 9.63417 3.48895 11.2892 5.66999 11.6708C5.27902 11.7625 4.85393 11.8058 4.41226 11.8058C4.10514 11.8058 3.7951 11.7908 3.50455 11.7358C4.12562 13.3592 5.89034 14.5533 7.98655 14.5925C6.35443 15.6833 4.28161 16.3408 2.03818 16.3408C1.64526 16.3408 1.26794 16.3258 0.890625 16.285C3.01609 17.4558 5.53349 18.125 8.24979 18.125C16.7156 18.125 22.233 12.0883 21.8859 5.9275V5.9275Z" fill="white"/>
</g>
<defs>
<clipPath id="clip0_105_5285">
<rect width="23.3996" height="20" fill="white" transform="translate(0.890625)"/>
</clipPath>
</defs>
</svg>
