<svg width="25" height="20" viewBox="0 0 25 20" fill="none" xmlns="http://www.w3.org/2000/svg">
<g clip-path="url(#clip0_105_5287)">
<path d="M10.8537 14.0994C10.9161 14.0544 10.9795 14.0077 11.038 13.9585C7.78056 16.6902 2.46886 15.4152 1.22381 11.5627V11.5569C-0.446339 6.3152 6.59596 2.33353 11.036 6.0002C11.1287 6.08437 17.2623 11.6752 16.8723 11.3194H16.8898C17.8053 12.126 19.1294 12.0377 19.9171 11.3327C20.7644 10.576 20.7946 9.34103 19.963 8.57187C18.6497 7.27937 16.0708 8.2452 16.3175 10.161L14.8414 8.87603L13.1293 7.47687C13.4823 6.8777 13.9454 6.35353 14.5255 5.9002C14.4631 5.94603 14.3997 5.99353 14.3412 6.04103C17.6113 3.29937 22.9191 4.60437 24.1554 8.4402V8.4452C25.8294 13.686 18.7793 17.6677 14.3432 14.001C14.2525 13.9177 8.12278 8.29187 8.51083 8.64853L8.50693 8.63603C8.49133 8.63603 8.49133 8.62353 8.49133 8.62353C7.52999 7.77603 6.22644 7.90353 5.46401 8.5977C4.61577 9.35437 4.58652 10.5894 5.42013 11.3469C6.67591 12.6094 9.31031 11.6735 9.06267 9.71937C9.15821 9.80353 12.4644 12.7044 12.2538 12.5202C11.7185 13.4327 11.1199 13.8519 10.8537 14.0994Z" fill="white"/>
</g>
<defs>
<clipPath id="clip0_105_5287">
<rect width="23.3996" height="20" fill="white" transform="translate(0.992188)"/>
</clipPath>
</defs>
</svg>
