<svg width="29" height="33" viewBox="0 0 29 33" fill="none" xmlns="http://www.w3.org/2000/svg">
<path fill-rule="evenodd" clip-rule="evenodd" d="M14.4141 0.333984C21.9957 0.333984 28.1641 6.54898 28.1641 14.189C28.1641 23.5807 17.4041 32.834 14.4141 32.834C11.4241 32.834 0.664062 23.5807 0.664062 14.189C0.664062 6.54898 6.8324 0.333984 14.4141 0.333984ZM14.4141 2.83398C8.21073 2.83398 3.16406 7.92898 3.16406 14.189C3.16406 22.154 12.5374 29.914 14.4141 30.3273C16.2907 29.9123 25.6641 22.1523 25.6641 14.189C25.6641 7.92898 20.6174 2.83398 14.4141 2.83398ZM14.4157 8.66732C17.4024 8.66732 19.8324 11.0973 19.8324 14.0857C19.8324 17.0723 17.4024 19.5007 14.4157 19.5007C11.4291 19.5007 8.99906 17.0723 8.99906 14.0857C8.99906 11.0973 11.4291 8.66732 14.4157 8.66732ZM14.4157 11.1673C12.8074 11.1673 11.4991 12.4757 11.4991 14.0857C11.4991 15.694 12.8074 17.0007 14.4157 17.0007C16.0241 17.0007 17.3324 15.694 17.3324 14.0857C17.3324 12.4757 16.0241 11.1673 14.4157 11.1673Z" fill="#0650A0"/>
</svg>
