<svg width="52" height="52" viewBox="0 0 52 52" fill="none" xmlns="http://www.w3.org/2000/svg">
<path d="M24.375 19.5H27.625V17.875C27.625 17.444 27.7962 17.0307 28.101 16.726C28.4057 16.4212 28.819 16.25 29.25 16.25H34.125C34.556 16.25 34.9693 16.4212 35.274 16.726C35.5788 17.0307 35.75 17.444 35.75 17.875V19.5H42.25V13C42.25 11.2761 41.5652 9.62279 40.3462 8.40381C39.1272 7.18482 37.4739 6.5 35.75 6.5H16.25C14.5261 6.5 12.8728 7.18482 11.6538 8.40381C10.4348 9.62279 9.75 11.2761 9.75 13V19.5H16.25V17.875C16.25 17.444 16.4212 17.0307 16.726 16.726C17.0307 16.4212 17.444 16.25 17.875 16.25H22.75C23.181 16.25 23.5943 16.4212 23.899 16.726C24.2038 17.0307 24.375 17.444 24.375 17.875V19.5ZM11.375 22.75C9.22012 22.75 7.15349 23.606 5.62976 25.1298C4.10602 26.6535 3.25 28.7201 3.25 30.875V43.875C3.25 44.306 3.4212 44.7193 3.72595 45.024C4.0307 45.3288 4.44402 45.5 4.875 45.5C5.30598 45.5 5.7193 45.3288 6.02405 45.024C6.3288 44.7193 6.5 44.306 6.5 43.875V35.75H45.5V43.875C45.5 44.306 45.6712 44.7193 45.976 45.024C46.2807 45.3288 46.694 45.5 47.125 45.5C47.556 45.5 47.9693 45.3288 48.274 45.024C48.5788 44.7193 48.75 44.306 48.75 43.875V30.875C48.75 28.7201 47.894 26.6535 46.3702 25.1298C44.8465 23.606 42.7799 22.75 40.625 22.75H11.375Z" fill="white"/>
</svg>
