<svg width="124" height="113" viewBox="0 0 124 113" fill="none" xmlns="http://www.w3.org/2000/svg">
<path fill-rule="evenodd" clip-rule="evenodd" d="M21.2378 0.147951C11.0611 1.97607 4.86886 12.5234 8.25998 22.2534C9.1341 24.7612 10.2235 26.4384 12.3888 28.6112C13.9726 30.2 14.7497 30.7659 16.5983 31.6765C19.3654 33.0393 21.4163 33.4917 24.8788 33.5025C32.3269 33.526 35.433 34.5251 39.3713 38.1648L40.8747 39.5542V26.9667C40.8747 15.3125 40.8403 14.2444 40.41 12.5658C38.9232 6.76562 34.2522 2.03775 28.4869 0.497879C26.7317 0.0291483 22.9228 -0.154696 21.2378 0.147951ZM25.7207 7.69061V9.23936L26.743 9.71625C27.7694 10.1951 28.8477 11.0039 28.8477 11.2948C28.8477 11.3805 28.4499 11.9255 27.9635 12.5061L27.0793 13.5614L26.1121 12.8517C25.58 12.4614 24.9007 12.142 24.6022 12.142C22.3633 12.142 21.8016 14.7919 23.9658 15.1452C26.0002 15.4776 26.2713 15.5777 27.0973 16.3013C27.5702 16.7155 28.1035 17.4039 28.2822 17.8306C28.7092 18.8501 28.6969 20.8731 28.2587 21.7184C27.8866 22.4365 26.3389 23.9023 25.9529 23.9023C25.8244 23.9023 25.7207 24.7056 25.7207 25.7023V27.5023H24.1572H22.5937V25.8458C22.5937 24.2123 22.5834 24.1857 21.8548 23.9323C21.4483 23.7909 20.6891 23.338 20.1676 22.9259L19.2197 22.1766L20.2069 20.9999L21.1943 19.8234L22.0691 20.5427C23.1472 21.4295 24.347 21.506 25.1641 20.7404C26.2983 19.6772 25.5795 18.5125 23.5583 18.1376C21.2121 17.7024 19.6146 15.851 19.6146 13.5667C19.6146 12.1432 20.5616 10.4848 21.7343 9.85474C22.5896 9.39489 22.5937 9.38504 22.5937 7.76741V6.14185H24.1572H25.7207V7.69061ZM88.5797 7.52044C87.3383 9.38024 86.7838 9.62049 84.587 9.25088L82.8638 8.96071L81.5783 10.3388C80.7008 11.2794 80.3412 11.8415 80.4454 12.1093C80.8223 13.0797 80.9799 14.656 80.7622 15.2793C80.6267 15.6667 79.9888 16.3186 79.2446 16.83C77.8716 17.7735 77.6837 18.1337 77.6837 19.8222C77.6837 21.4331 77.8651 21.8447 78.7948 22.3444C79.2598 22.594 79.9147 23.1244 80.2508 23.5228C80.7971 24.1703 80.8461 24.3883 80.7145 25.5749C80.6337 26.305 80.5019 27.1368 80.4221 27.4236C80.3088 27.8307 80.5683 28.2452 81.6077 29.3156C82.7137 30.4551 83.0321 30.6582 83.4949 30.5192C84.4912 30.2197 86.0538 30.0798 86.6725 30.2346C87.0494 30.3291 87.6969 30.9728 88.3916 31.9444L89.506 33.5025L91.2288 33.4998L92.9515 33.4972L93.8333 32.0754C94.9655 30.2502 95.7776 29.9475 98.176 30.4573L99.7924 30.8007L100.765 29.9703C102.146 28.7909 102.246 28.5137 101.843 27C101.159 24.4389 101.486 23.6685 103.836 22.2942C105.065 21.5754 105.339 21.1314 105.339 19.8577C105.339 18.4553 105.191 18.2331 103.627 17.2846C101.711 16.1232 101.354 15.413 101.721 13.487C101.874 12.6813 102.058 11.8233 102.129 11.5801C102.22 11.2684 101.903 10.7965 101.052 9.97786L99.8454 8.81743L98.7055 9.15968C96.2221 9.90538 95.1989 9.52737 93.7963 7.34644L93.0217 6.14185H91.2607H89.4998L88.5797 7.52044ZM93.455 15.6487C95.3927 16.5662 96.4646 18.7534 95.9594 20.7591C95.2106 23.7314 92.2275 25.1791 89.5332 23.8778C86.0649 22.2025 86.094 17.4927 89.584 15.6602C90.5247 15.1663 92.424 15.1605 93.455 15.6487ZM44.2738 27.829C43.7444 28.3911 43.741 28.4482 43.811 35.4492C43.8899 43.347 43.9255 43.5306 45.7064 45.2551L46.5873 46.1083L46.7083 51.3855C46.8081 55.7392 46.919 56.999 47.3411 58.5831C48.0551 61.2606 49.1033 63.2709 50.6611 64.9495C51.9133 66.2992 51.9828 66.4377 51.8258 67.2729C51.2427 70.3745 48.3112 72.6671 40.995 75.7435C33.3783 78.9461 29.8768 81.6296 27.5505 86.0467C26.2345 88.5453 25.2495 92.9672 25.2416 96.4111L25.2397 97.278L34.4403 101.254C39.5005 103.441 47.7419 106.978 52.754 109.115L61.8671 113L63.9391 112.147C65.0788 111.677 68.9878 110.036 72.6259 108.5C76.2641 106.963 79.7113 105.539 80.2861 105.335C80.861 105.13 85.2449 103.254 90.028 101.165L98.7244 97.3675L98.7993 96.0962C98.9049 94.3012 98.4396 91.1276 97.7558 88.9762C96.5553 85.2002 93.9704 81.9716 90.3426 79.7177C89.3044 79.0726 86.5385 77.7151 84.1961 76.7011C78.3587 74.1736 76.2203 73.022 74.8309 71.6574C73.4084 70.2603 72.6897 68.8637 72.3683 66.8724L72.1292 65.3915L73.6607 63.741C75.4241 61.8404 76.5878 59.6609 77.0824 57.3319C77.5976 54.9062 77.5863 39.6968 77.068 37.711C76.2932 34.7426 74.3744 32.3889 71.7162 31.1456L70.3408 30.5024L59.1557 30.3807C53.0039 30.3138 47.7941 30.1722 47.5781 30.0658C47.3621 29.9598 47.1182 29.4533 47.0361 28.9407C46.7809 27.3487 45.2905 26.749 44.2738 27.829ZM13.9824 36.9106C13.7758 37.1167 13.6938 38.6607 13.6938 42.338C13.6938 47.1809 13.7241 47.5315 14.2203 48.4123C14.5099 48.9264 14.997 49.5106 15.3027 49.7105C15.8461 50.0657 15.8586 50.1625 15.8586 54.0071C15.8586 57.1855 15.9457 58.2192 16.3118 59.3931C16.8597 61.1497 17.7235 62.6593 18.7237 63.6081C19.6264 64.4644 19.6389 64.744 18.8468 66.33C18.0468 67.932 16.2692 69.1157 11.5289 71.2026C5.87022 73.6938 3.49345 75.5606 1.92826 78.7435C1.07844 80.4716 0.408292 83.5871 0.510281 85.335L0.584367 86.6037L6.83839 89.3002C18.8945 94.498 21.1692 95.4407 21.3634 95.321C21.4711 95.2545 21.6241 94.2515 21.7035 93.092C21.7829 91.9325 22.0681 90.1738 22.3375 89.1838C22.9382 86.9762 24.9991 76.0485 24.9991 75.0705C24.9991 74.681 24.8295 74.2218 24.6224 74.0502C23.9867 73.5239 23.5559 72.4563 23.5559 71.407C23.5559 70.5653 23.7038 70.2593 24.4897 69.475C25.3366 68.6299 25.5408 68.5433 26.6829 68.5433C27.825 68.5433 28.0292 68.6299 28.8761 69.475C29.6778 70.2749 29.8094 70.5553 29.8063 71.455C29.8029 72.4892 29.6372 72.9167 28.7648 74.1445C28.3619 74.7112 28.3474 74.9262 28.6082 76.4697C28.8925 78.1517 28.9014 78.1661 29.413 77.7897C32.4361 75.5658 35.1824 74.0469 40.0328 71.9158L41.2355 71.3874L39.0002 70.2963C36.2304 68.9439 34.7821 67.5828 34.2652 65.8459C33.7307 64.0506 33.7875 63.7919 34.9983 62.5004C35.6028 61.8555 36.3877 60.7102 36.7423 59.9554L37.3869 58.5831L37.4574 51.536C37.5406 43.2263 37.468 42.8303 35.4907 40.8073C33.5895 38.862 33.1443 38.7826 24.1308 38.7826C17.6186 38.7826 16.5641 38.7322 16.2365 38.4056C16.0287 38.198 15.8586 37.8415 15.8586 37.6135C15.8586 37.0522 15.3893 36.6226 14.7762 36.6226C14.4984 36.6226 14.1412 36.7522 13.9824 36.9106ZM108.604 36.9996C108.396 37.2072 108.226 37.5814 108.226 37.8312C108.226 38.0813 108.016 38.3974 107.761 38.5342C107.469 38.69 104.527 38.7826 99.8663 38.7826C91.1001 38.7826 90.5495 38.8762 88.7469 40.6748C86.736 42.6815 86.5772 43.4394 86.5772 51.0394C86.5772 56.9532 86.6205 57.6466 87.0744 58.9908C87.6019 60.5528 88.5265 62.0473 89.5585 63.0049C90.3626 63.7513 90.3799 64.876 89.6126 66.5203C88.8796 68.0911 87.7352 69.0264 84.7994 70.4535C82.749 71.4505 82.4844 71.6446 82.8847 71.8583C83.1401 71.9948 84.752 72.7148 86.4666 73.4584C89.7446 74.8802 92.2342 76.2434 94.0241 77.5965C95.0379 78.3631 95.1065 78.3814 95.2732 77.9318C95.3701 77.6702 95.5233 76.8052 95.6135 76.0099C95.7641 74.6819 95.7268 74.5033 95.1558 73.8265C93.9469 72.3927 94.0205 70.6688 95.347 69.3451C96.0278 68.6659 96.3217 68.5433 97.2692 68.5433C99.3176 68.5433 100.586 69.6888 100.627 71.5755C100.642 72.2912 100.489 72.7866 100.104 73.2656C98.9275 74.7299 98.9243 74.5343 100.243 81.5574C100.919 85.1579 101.641 88.6978 101.846 89.4238C102.051 90.1498 102.339 91.7698 102.486 93.0239C102.632 94.2779 102.79 95.3462 102.836 95.3978C102.883 95.4494 104.575 94.7795 106.596 93.909C108.617 93.0387 113.247 91.0453 116.885 89.479L123.5 86.6315L123.483 84.3676C123.455 80.6998 122.343 78.0192 119.792 75.4744C118.436 74.1208 117.729 73.659 115.076 72.3891C113.359 71.5678 110.863 70.3714 109.529 69.7301C106.825 68.4303 105.309 67.0598 104.886 65.5339C104.65 64.6785 104.684 64.5818 105.587 63.5579C107.682 61.183 108.456 58.4496 108.462 53.3965L108.466 50.1301L109.299 49.2492C109.757 48.7647 110.243 47.9667 110.38 47.4756C110.517 46.9846 110.629 44.5204 110.63 41.9999C110.631 37.8639 110.588 37.3783 110.191 37.0198C109.639 36.521 109.09 36.5141 108.604 36.9996ZM63.8561 72.3546C66.4229 73.5176 67.3574 76.7229 65.7665 78.906C65.4468 79.3447 65.0018 79.9541 64.7778 80.2601C64.3884 80.7922 64.4519 81.2739 66.2179 91.1804C67.2342 96.8805 68.0634 101.732 68.0607 101.962C68.0571 102.255 67.1741 102.821 65.1187 103.849L62.1817 105.318L59.3263 103.911C57.756 103.137 56.3876 102.396 56.2856 102.264C56.1836 102.132 56.9449 97.434 57.9776 91.8238C59.0102 86.2137 59.8603 81.3872 59.8663 81.0982C59.8723 80.8093 59.4448 80.0744 58.9164 79.465C57.7933 78.1702 57.6167 77.6198 57.762 75.8697C58.011 72.8744 61.0877 71.0998 63.8561 72.3546Z" fill="#333333"/>
</svg>
