<svg width="32" height="31" viewBox="0 0 32 31" fill="none" xmlns="http://www.w3.org/2000/svg">
<path d="M15.809 10.5361C12.9916 10.5361 10.6924 12.8353 10.6924 15.6527C10.6924 18.47 12.9916 20.7692 15.809 20.7692C18.6263 20.7692 20.9255 18.47 20.9255 15.6527C20.9255 12.8353 18.6263 10.5361 15.809 10.5361ZM31.1548 15.6527C31.1548 13.5339 31.174 11.4343 31.055 9.31936C30.936 6.8628 30.3756 4.68261 28.5792 2.88625C26.779 1.08606 24.6027 0.529499 22.1461 0.410509C20.0273 0.29152 17.9278 0.310712 15.8128 0.310712C13.694 0.310712 11.5945 0.29152 9.47951 0.410509C7.02296 0.529499 4.84277 1.0899 3.04641 2.88625C1.24622 4.68645 0.689655 6.8628 0.570666 9.31936C0.451676 11.4381 0.470868 13.5377 0.470868 15.6527C0.470868 17.7676 0.451676 19.871 0.570666 21.986C0.689655 24.4425 1.25006 26.6227 3.04641 28.4191C4.8466 30.2193 7.02296 30.7758 9.47951 30.8948C11.5983 31.0138 13.6979 30.9946 15.8128 30.9946C17.9316 30.9946 20.0312 31.0138 22.1461 30.8948C24.6027 30.7758 26.7829 30.2154 28.5792 28.4191C30.3794 26.6189 30.936 24.4425 31.055 21.986C31.1778 19.871 31.1548 17.7714 31.1548 15.6527ZM15.809 23.5251C11.4524 23.5251 7.93649 20.0092 7.93649 15.6527C7.93649 11.2961 11.4524 7.78017 15.809 7.78017C20.1655 7.78017 23.6815 11.2961 23.6815 15.6527C23.6815 20.0092 20.1655 23.5251 15.809 23.5251ZM24.0039 9.29632C22.9867 9.29632 22.1653 8.47491 22.1653 7.45775C22.1653 6.44058 22.9867 5.61917 24.0039 5.61917C25.0211 5.61917 25.8425 6.44058 25.8425 7.45775C25.8428 7.69928 25.7954 7.9385 25.7031 8.1617C25.6108 8.3849 25.4754 8.58771 25.3046 8.75849C25.1338 8.92928 24.931 9.0647 24.7078 9.15699C24.4846 9.24928 24.2454 9.29663 24.0039 9.29632Z" fill="white"/>
</svg>
