<svg width="17" height="15" viewBox="0 0 17 15" fill="none" xmlns="http://www.w3.org/2000/svg">
<path d="M1.75098 8.31161H13.611L9.98098 12.6716C9.81124 12.8758 9.72958 13.1391 9.75396 13.4035C9.77834 13.668 9.90676 13.9119 10.111 14.0816C10.3152 14.2514 10.5785 14.333 10.8429 14.3086C11.1073 14.2843 11.3512 14.1558 11.521 13.9516L16.521 7.95161C16.5546 7.90389 16.5847 7.85375 16.611 7.80161C16.611 7.75161 16.611 7.72161 16.681 7.67161C16.7263 7.55695 16.75 7.4349 16.751 7.31161C16.75 7.18832 16.7263 7.06627 16.681 6.95161C16.681 6.90161 16.681 6.87161 16.611 6.82161C16.5847 6.76947 16.5546 6.71934 16.521 6.67161L11.521 0.671615C11.427 0.558732 11.3092 0.467952 11.1761 0.40573C11.043 0.343509 10.8979 0.311376 10.751 0.311614C10.5173 0.311157 10.2909 0.392532 10.111 0.541614C10.0097 0.625563 9.92602 0.728664 9.86466 0.845012C9.80331 0.961359 9.76552 1.08867 9.75344 1.21964C9.74136 1.35062 9.75525 1.48269 9.79429 1.60829C9.83333 1.7339 9.89677 1.85056 9.98098 1.95161L13.611 6.31161H1.75098C1.48576 6.31161 1.23141 6.41697 1.04387 6.60451C0.856333 6.79204 0.750977 7.0464 0.750977 7.31161C0.750977 7.57683 0.856333 7.83118 1.04387 8.01872C1.23141 8.20626 1.48576 8.31161 1.75098 8.31161Z" fill="white"/>
</svg>
