<svg width="20" height="20" viewBox="0 0 20 20" fill="none" xmlns="http://www.w3.org/2000/svg">
<path d="M18 6.64196V0.0849609H16V2.08496H4V0.0849609H2V6.64196C0.81 7.33496 0 8.60996 0 10.085V14.085C0 14.3502 0.105357 14.6045 0.292893 14.7921C0.48043 14.9796 0.734784 15.085 1 15.085H2V19.085H4V15.085H16V19.085H18V15.085H19C19.2652 15.085 19.5196 14.9796 19.7071 14.7921C19.8946 14.6045 20 14.3502 20 14.085V10.085C20 8.60996 19.189 7.33496 18 6.64196ZM16 4.08496V6.08496H11V4.08496H16ZM4 4.08496H9V6.08496H4V4.08496ZM18 13.085H2V10.085C2 8.98196 2.897 8.08496 4 8.08496H16C17.103 8.08496 18 8.98196 18 10.085V13.085Z" fill="#979797"/>
</svg>
