<svg width="86" height="79" viewBox="0 0 86 79" fill="none" xmlns="http://www.w3.org/2000/svg">
<path d="M46.1874 5.74501C50.4374 2.68501 55.3674 1.155 60.9349 1.155C63.9949 1.155 67.3524 1.96251 71.0074 3.66251C74.6624 5.32001 77.5524 7.275 79.6774 9.5275C84.0549 14.9675 85.8824 21.3 85.2449 28.525C84.5649 35.75 82.1849 41.4025 78.0624 45.3975L45.8049 77.655C44.9974 78.4625 43.9774 78.845 42.7874 78.845C41.5974 78.845 40.6199 78.4625 39.8124 77.655C39.4199 77.2678 39.1116 76.8037 38.9068 76.2918C38.702 75.7798 38.6052 75.2311 38.6224 74.68C38.6224 73.49 39.0049 72.47 39.8124 71.6625L59.3199 52.155C60.3824 51.22 60.3824 50.2425 59.3199 49.18C58.2574 48.1175 57.2799 48.1175 56.3449 49.18L36.8374 68.6875C36.444 69.0837 35.9728 69.394 35.4534 69.5989C34.934 69.8037 34.3778 69.8986 33.8199 69.8775C32.6299 69.8775 31.6524 69.495 30.8449 68.6875C30.4524 68.3003 30.1441 67.8362 29.9393 67.3242C29.7345 66.8123 29.6377 66.2636 29.6549 65.7125C29.6549 64.5225 30.0374 63.5025 30.8449 62.695L50.3524 43.1875C51.4999 42.125 51.4999 41.0625 50.3524 40C49.3749 38.9375 48.4399 38.9375 47.3774 40L27.8699 59.72C27.4721 60.1101 27.0001 60.4164 26.4818 60.6208C25.9634 60.8252 25.4094 60.9236 24.8524 60.91C23.6624 60.91 22.6424 60.5275 21.7499 59.72C20.8999 58.9125 20.4749 57.935 20.4749 56.745C20.4749 55.555 20.9424 54.4925 21.8774 53.5575L41.4274 34.0075C42.4899 32.945 42.4899 31.9675 41.4274 31.0325C40.3649 30.0975 39.3449 30.0975 38.4099 31.0325L18.6899 50.625C17.7549 51.475 16.7774 51.9425 15.7149 51.9425C14.5249 51.9425 13.5049 51.5175 12.7399 50.625C11.9324 49.775 11.5074 48.755 11.5074 47.565C11.5074 46.375 11.9324 45.3975 12.7399 44.59C25.7449 31.5 33.7774 23.595 36.8374 20.6625L51.9674 35.6225C53.6249 37.195 55.5374 38.0025 57.8749 38.0025C60.8499 38.0025 63.1874 36.8125 64.9299 34.4325C66.1199 32.69 66.5449 30.7775 66.2049 28.6525C65.8649 26.5275 64.9724 24.7425 63.5274 23.255L46.1874 5.74501ZM54.9424 32.6475L36.8374 14.5L6.7474 44.59C3.1774 40.9775 1.1374 35.4525 0.669897 27.93C0.202397 20.45 2.2424 13.9475 6.7474 8.50751C11.8049 3.49251 17.8399 0.942505 24.8524 0.942505C31.9074 0.942505 37.8999 3.49251 42.7874 8.50751L60.9349 26.655C61.7424 27.4625 62.1249 28.44 62.1249 29.63C62.1249 30.82 61.7424 31.84 60.9349 32.6475C60.1274 33.4125 59.1499 33.8375 57.8749 33.8375C56.7274 33.8375 55.7499 33.4125 54.9424 32.6475Z" fill="#0650A0"/>
</svg>
