<svg width="41" height="42" viewBox="0 0 41 42" fill="none" xmlns="http://www.w3.org/2000/svg">
<path d="M20.5 41.3862C25.9369 41.3862 31.1512 39.2264 34.9957 35.3819C38.8402 31.5374 41 26.3232 41 20.8862C41 15.4493 38.8402 10.235 34.9957 6.39054C31.1512 2.54604 25.9369 0.386229 20.5 0.38623C15.0631 0.38623 9.84881 2.54605 6.00431 6.39054C2.15982 10.235 6.58427e-07 15.4493 8.96083e-07 20.8862C1.13374e-06 26.3232 2.15982 31.5374 6.00431 35.3819C9.84881 39.2264 15.0631 41.3862 20.5 41.3862ZM11.5313 22.1675C11.1914 22.1675 10.8656 22.0325 10.6253 21.7922C10.385 21.5519 10.25 21.226 10.25 20.8862C10.25 20.5464 10.385 20.2205 10.6253 19.9802C10.8656 19.74 11.1914 19.605 11.5313 19.605L26.3758 19.605L20.8741 14.1059C20.6335 13.8653 20.4984 13.539 20.4984 13.1987C20.4984 12.8585 20.6335 12.5322 20.8741 12.2916C21.1147 12.051 21.441 11.9159 21.7813 11.9159C22.1215 11.9159 22.4478 12.051 22.6884 12.2916L30.3759 19.9791C30.4952 20.0981 30.5899 20.2395 30.6545 20.3952C30.719 20.5508 30.7523 20.7177 30.7523 20.8862C30.7523 21.0548 30.719 21.2216 30.6545 21.3773C30.5899 21.5329 30.4952 21.6743 30.3759 21.7934L22.6884 29.4809C22.4478 29.7214 22.1215 29.8566 21.7813 29.8566C21.441 29.8566 21.1147 29.7214 20.8741 29.4809C20.6335 29.2403 20.4984 28.914 20.4984 28.5737C20.4984 28.2335 20.6335 27.9072 20.8741 27.6666L26.3758 22.1675L11.5313 22.1675Z" fill="#015AB9"/>
</svg>
