<svg width="133" height="77" viewBox="0 0 133 77" fill="none" xmlns="http://www.w3.org/2000/svg">
<path d="M0.5 16.3147L25.1608 0L27.3429 3.32408C28.5427 5.15187 33.461 12.6031 38.2726 19.8821C43.0842 27.1613 47.5165 33.8983 48.1221 34.8532L49.2238 36.5898L47.9826 36.4873C46.7519 36.3855 43.226 31.3615 29.7889 10.5668C27.2061 6.56947 27.0635 6.4366 25.3525 6.42594C24.3808 6.42005 22.986 6.10601 22.2541 5.72802C20.9407 5.05006 20.8322 5.10153 13.903 9.699L6.8835 14.3566L6.86714 16.307C6.85806 17.3791 6.57275 18.7575 6.23338 19.369C5.65187 20.4161 6.00396 21.0687 12.2512 30.5139C15.9011 36.032 22.2046 45.6038 26.2602 51.7846C32.9086 61.9181 33.7382 62.9965 34.6999 62.7582C35.2874 62.6128 36.7125 62.8539 37.8678 63.2944L39.9686 64.0955L44.9092 60.824C49.0057 58.1113 50.0029 57.6342 50.7466 58.0317C51.2404 58.2956 51.4644 58.6675 51.245 58.8584C49.6281 60.2658 35.6095 69.0884 35.2969 68.8952C35.0793 68.7612 30.8483 62.4813 25.8936 54.9409C23.0805 50.6593 19.7659 45.6249 16.8769 41.2435C14.6776 37.9085 12.7246 34.952 11.427 32.9941C8.42452 28.4642 4.7378 22.8584 3.23403 20.5365L0.5 16.3147Z" fill="white"/>
<path fill-rule="evenodd" clip-rule="evenodd" d="M12.467 15.2397C12.0676 14.4949 12.4647 14.053 15.3023 12.0825L18.602 9.79174L19.7777 10.8794C21.211 12.2057 23.668 12.722 25.9113 12.1689L27.5855 11.7556L35.4 23.5363C39.6978 30.0158 43.151 35.3801 43.0742 35.4572C43.0342 35.4973 42.689 35.4957 42.1706 35.4608C41.6922 35.4286 41.0657 35.3681 40.3956 35.2858C38.0296 34.9951 37.8379 34.8776 37.5657 33.5491C36.7498 29.5596 33.4874 27.0515 29.5994 27.4245C25.5929 27.8089 23.136 30.5659 22.9592 34.8772C22.9043 36.2077 22.5622 37.9643 22.1987 38.7813L21.5377 40.2667L20.0735 38.0847C19.2675 36.8848 16.7475 33.0707 14.4732 29.609L10.3381 23.3143L11.6342 21.5292C13.003 19.6454 13.3647 16.9138 12.467 15.2397ZM23.4049 24.0565C24.2381 23.3663 24.3094 21.6736 23.5385 20.9038C22.7671 20.1338 21.0711 20.2054 20.3801 21.0369C19.5092 22.0843 20.1879 23.9968 21.5509 24.3383C22.2142 24.5045 23.0097 24.3837 23.4049 24.0565Z" fill="white"/>
<path d="M61.3897 22.0081C63.3505 21.3519 66.0723 20.622 67.4375 20.3855C73.338 19.3658 76.8021 20.8285 83.7581 27.2749C90.4837 33.5083 94.5529 35.6987 102.834 37.5442L105.509 38.1403V70.7332L95.3902 72.4891C83.8962 74.4836 81.2298 74.5979 77.0634 73.2748C73.8664 72.2597 72.7833 71.5423 66.7905 66.4736C58.111 59.1314 52.686 56.4297 33.4015 49.8448C29.9483 48.6653 26.6332 47.381 26.0358 46.9899C24.8614 46.2219 23.1864 42.9801 23.1864 41.4755C23.1864 40.9646 23.5939 39.6511 24.0918 38.5554C24.7578 37.0904 25.4488 36.3762 26.7077 35.8511C28.6004 35.062 28.9866 35.0903 39.9136 36.834C43.6239 37.4258 47.7009 38.053 48.9739 38.2276C51.936 38.6339 68.3574 42.7994 69.3074 43.3856C69.5159 43.5146 69.6872 43.5066 69.6872 43.3683C69.6872 43.2917 69.3583 43.0563 68.8422 42.7489C68.426 42.501 67.8881 42.2065 67.303 41.9106L64.9188 40.7045L66.6997 38.8842C67.6792 37.8831 68.2807 37.0639 68.0358 37.0639C67.9408 37.0639 67.6378 37.1254 67.2003 37.2297C66.5098 37.3941 65.4839 37.6652 64.4145 37.9704L61.2384 38.8774L54.9994 35.8613C49.9497 33.421 48.5368 32.5186 47.5928 31.132C46.9513 30.1895 46.4266 29.2435 46.4266 29.0299C46.4266 28.4669 57.2037 23.4096 61.3897 22.0081Z" fill="white"/>
<path d="M30.6093 33.8133C29.4931 33.8133 29.3963 32.7689 30.4181 31.7488C30.7179 31.4493 31.1836 31.2524 31.7778 31.167C32.1322 31.1162 32.5324 31.1048 32.9708 31.1348C34.6972 31.2534 35.7053 32.0914 34.7963 32.6524C34.6572 32.7381 34.5755 32.9236 34.5623 33.1385C34.5532 33.2845 34.5759 33.4444 34.6341 33.5961C34.8131 34.0623 34.5868 34.2777 33.9158 34.2777C33.3547 34.2777 32.9354 33.98 32.9354 33.5811C32.9354 33.1981 32.6215 32.8846 32.2376 32.8846C31.8542 32.8846 31.5398 33.0936 31.5398 33.3489C31.5398 33.6045 31.1213 33.8133 30.6093 33.8133Z" fill="white"/>
<path d="M113.417 54.5555C113.417 42.2106 113.546 31.9823 113.703 31.8254C113.86 31.6687 118.099 31.5815 123.124 31.6322L132.258 31.7236L132.5 77H113.417V54.5555Z" fill="white"/>
<path d="M106.904 54.5555C106.904 43.9984 107.044 35.2218 107.215 35.0518C107.385 34.8815 108.537 34.742 109.773 34.742H112.022V73.7494H106.904V54.5555Z" fill="white"/>
<path d="M30.3327 53.6126C30.0742 53.2152 29.8175 52.8129 29.5776 52.4281L27.8481 49.6546L36.7884 52.6896C41.7058 54.3595 45.9146 55.9016 46.1413 56.1168C46.373 56.3368 45.5938 57.1152 44.3631 57.8943L42.1733 59.281L40.5628 58.1897C38.3953 56.7218 36.4445 56.3504 34.6968 57.0732C33.362 57.6249 33.1953 57.5809 32.2853 56.4338C31.8832 55.9273 31.1 54.7913 30.3327 53.6126Z" fill="white"/>
</svg>
