<svg width="21" height="17" viewBox="0 0 21 17" fill="none" xmlns="http://www.w3.org/2000/svg">
<path d="M10.0872 9.71024L9.0623 10.7351L10.085 12.7804L11.0912 11.7183L10.0872 9.71024ZM10.7393 14.089L11.6974 16.0054L12.7037 14.9433L11.7455 13.0269L10.7393 14.089ZM18.6003 5.79123L17.6066 6.84018L19.5154 7.7531L20.5092 6.70414L18.6003 5.79123ZM14.4615 5.33593L16.3031 6.21675L17.2969 5.16784L15.4925 4.30485L14.4615 5.33593ZM12.9654 11.7392L14.191 13.3734L15.1502 12.3608L13.9246 10.7267L12.9654 11.7392ZM13.0877 9.61081L11.8444 7.95299L10.8623 8.93512L12.1285 10.6234L13.0877 9.61081ZM12.6628 7.1346L14.239 8.39561L15.188 7.39388L13.6411 6.15633L12.6628 7.1346ZM15.3164 9.25756L16.8943 10.5199L17.8433 9.51812L16.2654 8.25587L15.3164 9.25756ZM14.7229 1.41129L13.5954 2.53875L12.5333 1.47665C12.088 1.03133 11.5593 0.678079 10.9774 0.437073C10.3956 0.196066 9.77199 0.0720215 9.14221 0.0720215C8.51242 0.0720215 7.88881 0.196066 7.30697 0.437073C6.72513 0.678079 6.19645 1.03133 5.75113 1.47665C5.73644 1.4913 5.72221 1.50626 5.70778 1.52108C5.20603 1.1676 4.61683 0.958743 4.00448 0.917289C3.39212 0.875834 2.78015 1.00338 2.23534 1.28601C1.69053 1.56863 1.23382 1.99548 0.915058 2.51996C0.596293 3.04445 0.427719 3.64641 0.427734 4.26017V14.6162H1.80273V4.26017C1.80273 3.90009 1.90113 3.54685 2.08732 3.23864C2.27351 2.93043 2.5404 2.67898 2.85913 2.51145C3.17787 2.34393 3.53633 2.2667 3.89578 2.28813C4.25522 2.30956 4.60197 2.42882 4.89855 2.63302C4.42285 3.53929 4.24902 4.57378 4.40238 5.58575C4.55574 6.59772 5.02828 7.53426 5.75113 8.25888L6.81319 9.32094L5.78538 10.3488L6.64475 11.2082L15.5823 2.27067L14.7229 1.41129ZM7.68971 8.25295L6.72339 7.28663C6.0881 6.64383 5.733 5.77575 5.73565 4.872C5.7383 3.96825 6.09848 3.10227 6.73752 2.46321C7.37656 1.82414 8.24253 1.46393 9.14628 1.46125C10.05 1.45857 10.9181 1.81364 11.5609 2.4489L12.5273 3.41527L7.68971 8.25295Z" fill="#979797"/>
</svg>
