<svg width="37" height="33" viewBox="0 0 37 33" fill="none" xmlns="http://www.w3.org/2000/svg">
<path fill-rule="evenodd" clip-rule="evenodd" d="M26.7663 0.333984C32.3163 0.333984 36.5013 4.86232 36.5013 10.8673V22.314C36.5013 25.3873 35.4146 28.164 33.4396 30.134C31.668 31.899 29.3696 32.834 26.793 32.834H10.3713C7.79964 32.834 5.50297 31.9006 3.72964 30.134C1.75464 28.164 0.667969 25.3873 0.667969 22.314V10.8673C0.667969 4.86232 4.85297 0.333984 10.403 0.333984H26.7663ZM26.7663 2.83398H10.403C6.2113 2.83398 3.16797 6.21232 3.16797 10.8673V22.314C3.16797 24.719 3.99464 26.8673 5.49464 28.3623C6.78797 29.654 8.4763 30.334 10.3763 30.334H26.7663C26.7696 30.3307 26.783 30.334 26.793 30.334C28.6946 30.334 30.3813 29.654 31.6746 28.3623C33.1763 26.8673 34.0013 24.719 34.0013 22.314V10.8673C34.0013 6.21232 30.958 2.83398 26.7663 2.83398ZM29.393 10.5487C29.828 11.0837 29.7463 11.8703 29.2113 12.307L21.8046 18.327C20.868 19.0703 19.748 19.442 18.6296 19.442C17.5146 19.442 16.403 19.0737 15.473 18.337L7.99797 12.3103C7.45964 11.877 7.3763 11.0887 7.80797 10.552C8.24297 10.017 9.02964 9.93198 9.5663 10.3637L17.0346 16.3836C17.973 17.127 19.2946 17.127 20.2396 16.377L27.633 10.367C28.1696 9.92865 28.9563 10.012 29.393 10.5487Z" fill="#0650A0"/>
</svg>
