<svg width="58" height="58" viewBox="0 0 58 58" fill="none" xmlns="http://www.w3.org/2000/svg">
<path d="M28.9987 0C28.4604 0 27.944 0.213874 27.5633 0.594573C27.1826 0.975272 26.9688 1.49161 26.9688 2.03V48.43C26.9688 48.9684 27.1826 49.4847 27.5633 49.8654C27.944 50.2461 28.4604 50.46 28.9987 50.46C29.5371 50.46 30.0535 50.2461 30.4342 49.8654C30.8149 49.4847 31.0287 48.9684 31.0287 48.43V27.26H55.9688C56.5071 27.26 57.0235 27.0461 57.4042 26.6654C57.7849 26.2847 57.9987 25.7684 57.9987 25.23V2.03C57.9987 1.49161 57.7849 0.975272 57.4042 0.594573C57.0235 0.213874 56.5071 0 55.9688 0H29.2887C29.2396 0.000148856 29.1904 0.00208347 29.1414 0.0058C29.094 0.00219397 29.0464 0.000259443 28.9987 0V0ZM37.0027 4.06H42.6867V8.3694H48.3708V4.06H53.9387V8.3694H48.3708V14.0528H53.9387V19.7368H48.3708V23.2H42.6867V19.7374H37.0027V23.2H31.3187V19.7374H37.0027V14.0528H31.3187V8.36882H37.0027V4.06ZM37.0027 8.3694V14.0528H42.6867V8.36882H37.0027V8.3694ZM42.6867 14.0528V19.7368H48.3708V14.0528H42.6867Z" fill="white"/>
<path d="M28.9987 0C28.4604 0 27.944 0.213874 27.5633 0.594573C27.1826 0.975272 26.9688 1.49161 26.9688 2.03V48.43C26.9688 48.9684 27.1826 49.4847 27.5633 49.8654C27.944 50.2461 28.4604 50.46 28.9987 50.46C29.5371 50.46 30.0535 50.2461 30.4342 49.8654C30.8149 49.4847 31.0287 48.9684 31.0287 48.43V27.26H55.9688C56.5071 27.26 57.0235 27.0461 57.4042 26.6654C57.7849 26.2847 57.9987 25.7684 57.9987 25.23V2.03C57.9987 1.49161 57.7849 0.975272 57.4042 0.594573C57.0235 0.213874 56.5071 0 55.9688 0H29.2887C29.2396 0.000148856 29.1904 0.00208347 29.1414 0.0058C29.094 0.00219397 29.0464 0.000259443 28.9987 0V0ZM37.0027 4.06H42.6867V8.3694H48.3708V4.06H53.9387V8.3694H48.3708V14.0528H53.9387V19.7368H48.3708V23.2H42.6867V19.7374H37.0027V23.2H31.3187V19.7374H37.0027V14.0528H31.3187V8.36882H37.0027V4.06ZM37.0027 8.3694V14.0528H42.6867V8.36882H37.0027V8.3694ZM42.6867 14.0528V19.7368H48.3708V14.0528H42.6867Z" fill="white"/>
<path d="M22.0439 44.5391C15.8994 45.4079 11.6016 47.4855 11.6016 50.5426C11.6016 54.6606 18.7825 57.9997 29.0016 57.9997C39.2206 57.9997 46.4016 54.6612 46.4016 50.5426C46.4016 47.4849 42.1038 45.4079 35.9598 44.5396L35.1084 45.9891C39.7397 46.6311 42.9216 47.9819 42.9216 49.5485C42.9216 51.745 36.6895 53.5256 29.0016 53.5256C21.3137 53.5256 15.0816 51.745 15.0816 49.5485C15.081 47.9872 18.2426 46.6381 22.8878 45.9931C22.6071 45.5082 22.3252 45.0245 22.0439 44.5391Z" fill="white"/>
</svg>
