<svg width="58" height="58" viewBox="0 0 58 58" fill="none" xmlns="http://www.w3.org/2000/svg">
<g clip-path="url(#clip0_2_463)">
<path d="M53.1669 30.6104C52.9548 30.6116 52.7446 30.571 52.5484 30.4908C52.3521 30.4106 52.1735 30.2925 52.023 30.1432L29.0002 7.10427L5.97743 30.1432C5.66922 30.4071 5.27277 30.545 4.86729 30.5294C4.46181 30.5137 4.07717 30.3456 3.79024 30.0587C3.50331 29.7718 3.33522 29.3871 3.31956 28.9816C3.3039 28.5762 3.44182 28.1797 3.70576 27.8715L27.8724 3.70483C28.1743 3.40476 28.5826 3.23633 29.0083 3.23633C29.4339 3.23633 29.8422 3.40476 30.1441 3.70483L54.3108 27.8715C54.5325 28.0977 54.6826 28.3842 54.7424 28.6952C54.8021 29.0062 54.7689 29.3279 54.6469 29.6202C54.5248 29.9124 54.3193 30.1622 54.0561 30.3383C53.7929 30.5144 53.4836 30.6091 53.1669 30.6104Z" fill="white"/>
<path d="M28.9993 12.5508L9.66602 31.9486V51.5558C9.66602 52.4104 10.0055 53.23 10.6098 53.8342C11.2141 54.4385 12.0337 54.778 12.8882 54.778H24.166V38.6669H33.8327V54.778H45.1105C45.965 54.778 46.7846 54.4385 47.3889 53.8342C47.9932 53.23 48.3327 52.4104 48.3327 51.5558V31.8358L28.9993 12.5508Z" fill="white"/>
</g>
<defs>
<clipPath id="clip0_2_463">
<rect width="58" height="58" fill="white"/>
</clipPath>
</defs>
</svg>
