<svg width="186" height="67" viewBox="0 0 186 67" fill="none" xmlns="http://www.w3.org/2000/svg">
<path d="M24.0311 35.0406L27.9607 44.9216H20.1015L24.0311 35.0406Z" fill="#0650A0"/>
<path fill-rule="evenodd" clip-rule="evenodd" d="M71.6331 14.7702H0V65.4906H71.6331V56.0154H63.9529C60.9792 56.0154 58.6544 55.1831 56.9788 53.5184C55.3267 51.83 54.5006 49.3567 54.5006 46.0987C54.5006 42.8407 55.3267 40.3794 56.9788 38.7147C58.6544 37.0263 60.9792 36.1821 63.9529 36.1821H71.6331V14.7702ZM9.48102 56.0154H15.6763L18.3668 49.2735H29.6954L32.3859 56.0154H38.5812L26.9695 28.263H21.0928L9.48102 56.0154ZM54.3264 36.1821H46.2548C43.2811 36.1821 40.9564 37.0263 39.2807 38.7147C37.6286 40.3794 36.8026 42.8407 36.8026 46.0987C36.8026 49.3567 37.6286 51.83 39.2807 53.5184C40.9564 55.1831 43.2811 56.0154 46.2548 56.0154H54.3264V51.8418H47.0336C45.5468 51.8418 44.3667 51.3306 43.4935 50.308C42.6438 49.2854 42.219 47.8823 42.219 46.0987C42.219 44.3152 42.6438 42.9121 43.4935 41.8895C44.3667 40.8669 45.5468 40.3556 47.0336 40.3556H54.3264V36.1821Z" fill="#0650A0"/>
<path d="M71.6331 40.1416H64.7317C64.1181 40.1416 63.5399 40.1773 62.9971 40.2486C62.4778 40.2962 62.0058 40.4626 61.581 40.748C61.1798 41.0096 60.8493 41.402 60.5897 41.9252C60.3537 42.4483 60.2003 43.1737 60.1295 44.1011H71.5997V48.0607H60.1295C60.2003 48.6076 60.2829 49.1308 60.3773 49.6302C60.4717 50.1058 60.6605 50.522 60.9438 50.8787C61.227 51.2354 61.6636 51.5208 62.2536 51.7348C62.8436 51.9489 63.6697 52.0559 64.7317 52.0559H71.6331V40.1416Z" fill="#0650A0"/>
<path d="M76.6115 0H82.4196V5.85236H87.6745V11.7047H82.4196V35.3928H76.6115V0Z" fill="#0650A0"/>
<path d="M75.2286 5.85236H45.3584V11.7047H75.2286V5.85236Z" fill="#0650A0"/>
<path d="M76.6447 59.0809H93.3897C94.4753 59.0809 95.5256 58.9739 96.5404 58.7599C97.5789 58.5221 98.4875 58.1297 99.2664 57.5827C100.069 57.012 100.706 56.2629 101.178 55.3354C101.65 54.3842 101.886 53.1951 101.886 51.7683C101.886 50.1987 101.473 48.8551 100.647 47.7374C99.8446 46.5959 98.7117 45.7517 97.2485 45.2047C98.7117 44.5626 99.7856 43.6352 100.47 42.4223C101.178 41.2095 101.532 39.8064 101.532 38.2131C101.532 37.0716 101.296 36.0728 100.824 35.2167C100.376 34.3606 99.762 33.6471 98.9832 33.0764C98.2279 32.5057 97.3547 32.0776 96.3634 31.7922C95.3958 31.4831 94.4045 31.3285 93.3897 31.3285H76.6447V59.0809ZM91.5842 42.9217H82.4506V35.8944H91.5842C92.9295 35.8944 93.9207 36.2036 94.5579 36.8219C95.2188 37.4402 95.5492 38.2963 95.5492 39.3903C95.5492 40.4842 95.2188 41.3522 94.5579 41.9943C93.9207 42.6126 92.9295 42.9217 91.5842 42.9217ZM91.5842 54.515H82.4506V47.4877H91.5842C92.9295 47.4877 93.9207 47.7968 94.5579 48.4151C95.2188 49.0335 95.5492 49.8896 95.5492 50.9835C95.5492 52.1012 95.2188 52.9692 94.5579 53.5875C93.9207 54.2058 92.9295 54.515 91.5842 54.515Z" fill="#212121"/>
<path d="M108.541 43.4211H111.019C111.397 43.4211 111.716 43.4925 111.975 43.6352C112.235 43.7778 112.436 43.9443 112.577 44.1346C112.742 44.3248 112.849 44.5388 112.896 44.7766C112.967 45.0145 113.002 45.2166 113.002 45.3831V47.3807H118.1V44.4199C118.1 43.8968 118.005 43.3379 117.817 42.7434C117.628 42.1251 117.309 41.5543 116.861 41.0311C116.412 40.508 115.834 40.0799 115.126 39.747C114.418 39.414 113.545 39.2476 112.506 39.2476H103.443V59.0809H108.541V43.4211Z" fill="#212121"/>
<path d="M124.269 59.0809V39.2476H119.171V59.0809H124.269ZM124.269 37.25V32.5057H119.171V37.25H124.269Z" fill="#212121"/>
<path d="M134.788 59.0809H146.01V31.3285H140.913V39.2476H134.788C131.814 39.2476 129.49 40.0918 127.814 41.7802C126.162 43.4449 125.336 45.9062 125.336 49.1642C125.336 52.4222 126.162 54.8955 127.814 56.5839C129.49 58.2486 131.814 59.0809 134.788 59.0809ZM140.913 43.4211V54.9074H135.567C134.08 54.9074 132.9 54.3961 132.027 53.3735C131.177 52.3509 130.752 50.9478 130.752 49.1642C130.752 47.3807 131.177 45.9776 132.027 44.955C132.9 43.9324 134.08 43.4211 135.567 43.4211H140.913Z" fill="#212121"/>
<path d="M167.753 39.2476H156.531C153.557 39.2476 151.233 40.0918 149.557 41.7802C147.905 43.4449 147.079 45.9062 147.079 49.1642C147.079 52.4222 147.905 54.8955 149.557 56.5839C151.233 58.2486 153.557 59.0809 156.531 59.0809H162.656C162.656 60.6505 162.396 61.6968 161.877 62.22C161.381 62.767 160.602 63.0405 159.54 63.0405H149.238V67H160.567C161.558 67 162.49 66.8335 163.364 66.5006C164.237 66.1914 164.992 65.7158 165.629 65.0737C166.29 64.4316 166.809 63.6112 167.187 62.6124C167.565 61.6136 167.753 60.4364 167.753 59.0809V39.2476ZM162.656 43.4211V54.9074H157.31C155.823 54.9074 154.643 54.3961 153.77 53.3735C152.92 52.3509 152.495 50.9478 152.495 49.1642C152.495 47.3807 152.92 45.9776 153.77 44.955C154.643 43.9324 155.823 43.4211 157.31 43.4211H162.656Z" fill="#212121"/>
<path d="M178.707 55.1214C177.645 55.1214 176.819 55.0144 176.229 54.8003C175.639 54.5863 175.202 54.3009 174.919 53.9442C174.636 53.5875 174.447 53.1713 174.353 52.6957C174.258 52.1963 174.176 51.6731 174.105 51.1262H185.575V47.1666H174.105C174.176 46.2392 174.329 45.5139 174.565 44.9907C174.825 44.4675 175.155 44.0751 175.556 43.8135C175.981 43.5281 176.453 43.3617 176.973 43.3141C177.515 43.2428 178.094 43.2071 178.707 43.2071H186V39.2476H177.928C174.955 39.2476 172.63 40.0918 170.954 41.7802C169.302 43.4449 168.476 45.9062 168.476 49.1642C168.476 52.4222 169.302 54.8955 170.954 56.5839C172.63 58.2486 174.955 59.0809 177.928 59.0809H186V55.1214H178.707Z" fill="#212121"/>
</svg>
