<svg width="134" height="48" viewBox="0 0 134 48" fill="none" xmlns="http://www.w3.org/2000/svg">
<path d="M17.3127 25.1037L20.1437 32.1826H14.4817L17.3127 25.1037Z" fill="white"/>
<path fill-rule="evenodd" clip-rule="evenodd" d="M51.6067 10.5817H0V46.9187H51.6067V40.1304H46.0736C43.9312 40.1304 42.2564 39.5341 41.0492 38.3415C39.859 37.1319 39.2639 35.36 39.2639 33.026C39.2639 30.6919 39.859 28.9285 41.0492 27.7359C42.2564 26.5263 43.9312 25.9215 46.0736 25.9215H51.6067V10.5817ZM6.83041 40.1304H11.2937L13.232 35.3004H21.3935L23.3318 40.1304H27.7951L19.4296 20.2481H15.1959L6.83041 40.1304ZM39.1384 25.9215H33.3234C31.181 25.9215 29.5062 26.5263 28.299 27.7359C27.1088 28.9285 26.5137 30.6919 26.5137 33.026C26.5137 35.36 27.1088 37.1319 28.299 38.3415C29.5062 39.5341 31.181 40.1304 33.3234 40.1304H39.1384V37.1404H33.8845C32.8133 37.1404 31.9631 36.7741 31.334 36.0415C30.7219 35.3089 30.4159 34.3037 30.4159 33.026C30.4159 31.7482 30.7219 30.743 31.334 30.0104C31.9631 29.2778 32.8133 28.9115 33.8845 28.9115H39.1384V25.9215Z" fill="white"/>
<path d="M51.6067 28.7582H46.6347C46.1926 28.7582 45.776 28.7837 45.385 28.8348C45.0109 28.8689 44.6708 28.9882 44.3648 29.1926C44.0757 29.38 43.8377 29.6611 43.6507 30.0359C43.4806 30.4108 43.3701 30.9304 43.3191 31.5948H51.5826V34.4315H43.3191C43.3701 34.8234 43.4296 35.1982 43.4976 35.556C43.5657 35.8967 43.7017 36.1949 43.9057 36.4504C44.1098 36.706 44.4243 36.9104 44.8494 37.0638C45.2745 37.2171 45.8696 37.2938 46.6347 37.2938H51.6067V28.7582Z" fill="white"/>
<path d="M55.1932 0H59.3776V4.19273H63.1634V8.38546H59.3776V25.356H55.1932V0Z" fill="white"/>
<path d="M54.197 4.19273H32.6776V8.38546H54.197V4.19273Z" fill="white"/>
<path d="M55.2171 42.3266H67.2807C68.0629 42.3266 68.8195 42.25 69.5506 42.0966C70.2988 41.9263 70.9534 41.6451 71.5145 41.2533C72.0926 40.8444 72.5517 40.3077 72.8917 39.6433C73.2318 38.9618 73.4018 38.1099 73.4018 37.0877C73.4018 35.9633 73.1043 35.0007 72.5092 34.1999C71.9311 33.3821 71.1149 32.7773 70.0607 32.3855C71.1149 31.9255 71.8886 31.261 72.3816 30.3921C72.8917 29.5232 73.1468 28.518 73.1468 27.3765C73.1468 26.5588 72.9767 25.8432 72.6367 25.2299C72.3136 24.6165 71.8716 24.1054 71.3105 23.6965C70.7664 23.2876 70.1372 22.981 69.4231 22.7765C68.726 22.555 68.0119 22.4443 67.2807 22.4443H55.2171V42.3266ZM65.98 30.7499H59.3999V25.7154H65.98C66.9492 25.7154 67.6633 25.9369 68.1224 26.3799C68.5985 26.8228 68.8365 27.4362 68.8365 28.2199C68.8365 29.0036 68.5985 29.6254 68.1224 30.0854C67.6633 30.5284 66.9492 30.7499 65.98 30.7499ZM65.98 39.0555H59.3999V34.021H65.98C66.9492 34.021 67.6633 34.2425 68.1224 34.6855C68.5985 35.1284 68.8365 35.7418 68.8365 36.5255C68.8365 37.3262 68.5985 37.9481 68.1224 38.3911C67.6633 38.834 66.9492 39.0555 65.98 39.0555Z" fill="white"/>
<path d="M78.1965 31.1077H79.9818C80.2538 31.1077 80.4834 31.1588 80.6704 31.261C80.8574 31.3632 81.0019 31.4825 81.104 31.6188C81.223 31.7551 81.2995 31.9084 81.3335 32.0788C81.3845 32.2492 81.41 32.394 81.41 32.5132V33.9444H85.0827V31.8232C85.0827 31.4484 85.0146 31.048 84.8786 30.6221C84.7426 30.1792 84.5131 29.7703 84.19 29.3954C83.8669 29.0206 83.4504 28.714 82.9403 28.4754C82.4302 28.2369 81.8011 28.1177 81.053 28.1177H74.5238V42.3266H78.1965V31.1077Z" fill="white"/>
<path d="M89.527 42.3266V28.1177H85.8544V42.3266H89.527ZM89.527 26.6865V23.2876H85.8544V26.6865H89.527Z" fill="white"/>
<path d="M97.1054 42.3266H105.19V22.4443H101.518V28.1177H97.1054C94.963 28.1177 93.2883 28.7225 92.081 29.9321C90.8908 31.1247 90.2957 32.8881 90.2957 35.2221C90.2957 37.5562 90.8908 39.3281 92.081 40.5377C93.2883 41.7303 94.963 42.3266 97.1054 42.3266ZM101.518 31.1077V39.3366H97.6665C96.5953 39.3366 95.7452 38.9703 95.1161 38.2377C94.504 37.5051 94.1979 36.4999 94.1979 35.2221C94.1979 33.9444 94.504 32.9392 95.1161 32.2066C95.7452 31.474 96.5953 31.1077 97.6665 31.1077H101.518Z" fill="white"/>
<path d="M120.855 28.1177H112.77C110.627 28.1177 108.953 28.7225 107.745 29.9321C106.555 31.1247 105.96 32.8881 105.96 35.2221C105.96 37.5562 106.555 39.3281 107.745 40.5377C108.953 41.7303 110.627 42.3266 112.77 42.3266H117.182C117.182 43.4511 116.995 44.2007 116.621 44.5755C116.264 44.9674 115.703 45.1633 114.938 45.1633H107.516V48H115.677C116.391 48 117.063 47.8807 117.692 47.6422C118.321 47.4207 118.865 47.08 119.324 46.62C119.8 46.16 120.175 45.5722 120.447 44.8566C120.719 44.1411 120.855 43.2977 120.855 42.3266V28.1177ZM117.182 31.1077V39.3366H113.331C112.26 39.3366 111.409 38.9703 110.78 38.2377C110.168 37.5051 109.862 36.4999 109.862 35.2221C109.862 33.9444 110.168 32.9392 110.78 32.2066C111.409 31.474 112.26 31.1077 113.331 31.1077H117.182Z" fill="white"/>
<path d="M128.746 39.4899C127.981 39.4899 127.386 39.4133 126.961 39.2599C126.536 39.1066 126.221 38.9022 126.017 38.6466C125.813 38.3911 125.677 38.0929 125.609 37.7522C125.541 37.3944 125.482 37.0196 125.431 36.6277H133.694V33.791H125.431C125.482 33.1266 125.592 32.6069 125.762 32.2321C125.949 31.8573 126.187 31.5762 126.476 31.3888C126.782 31.1843 127.122 31.0651 127.496 31.031C127.887 30.9799 128.304 30.9543 128.746 30.9543H134V28.1177H128.185C126.043 28.1177 124.368 28.7225 123.161 29.9321C121.97 31.1247 121.375 32.8881 121.375 35.2221C121.375 37.5562 121.97 39.3281 123.161 40.5377C124.368 41.7303 126.043 42.3266 128.185 42.3266H134V39.4899H128.746Z" fill="white"/>
</svg>
