<svg width="86" height="86" viewBox="0 0 86 86" fill="none" xmlns="http://www.w3.org/2000/svg">
<path d="M84.565 20.815C85.0102 20.3693 85.3133 19.8016 85.4361 19.1836C85.5589 18.5657 85.4957 17.9252 85.2547 17.3431C85.0137 16.761 84.6056 16.2634 84.0819 15.9131C83.5582 15.5628 82.9425 15.3756 82.3125 15.375H70.625V3.68754C70.6244 3.05752 70.4372 2.44179 70.0869 1.91812C69.7366 1.39446 69.239 0.98634 68.6569 0.745316C68.0748 0.504293 67.4344 0.441175 66.8164 0.563933C66.1985 0.686692 65.6308 0.989821 65.185 1.43504L54.56 12.06C53.9621 12.6572 53.6257 13.4674 53.625 14.3125V26.3655L45.2015 34.789C43.9421 34.454 42.6227 34.4125 41.3448 34.6679C40.0668 34.9232 38.8646 35.4685 37.8307 36.2618C36.7968 37.0551 35.9589 38.0752 35.3814 39.2434C34.8039 40.4116 34.5024 41.6969 34.5 43C34.5006 44.2097 34.7593 45.4053 35.2589 46.507C35.7586 47.6086 36.4876 48.591 37.3973 49.3883C38.307 50.1856 39.3764 50.7796 40.534 51.1306C41.6917 51.4815 42.9109 51.5813 44.1102 51.4233C45.3095 51.2653 46.4613 50.8532 47.4885 50.2144C48.5158 49.5756 49.3949 48.7249 50.067 47.7192C50.7392 46.7135 51.1889 45.5759 51.3862 44.3824C51.5835 43.1889 51.5238 41.9671 51.211 40.7985L59.6345 32.375H71.6875C72.5326 32.3743 73.3428 32.038 73.94 31.44L84.565 20.815ZM43 0.500036C47.9627 0.493571 52.8881 1.3581 57.552 3.05429L51.551 9.05529C51.2875 9.31879 51.041 9.60779 50.8242 9.90529C43.6247 8.20493 36.067 8.89909 29.2976 11.8825C22.5282 14.8658 16.9165 19.9756 13.3138 26.4367C9.7111 32.8978 8.31394 40.3576 9.33428 47.6845C10.3546 55.0114 13.7368 61.8057 18.9677 67.0366C24.1986 72.2675 30.9929 75.6497 38.3198 76.67C45.6467 77.6903 53.1065 76.2932 59.5676 72.6905C66.0287 69.0878 71.1385 63.4761 74.1218 56.7067C77.1052 49.9373 77.7994 42.3796 76.099 35.18C76.3965 34.959 76.6813 34.7125 76.949 34.449L82.9415 28.448C84.639 33.1117 85.5049 38.0371 85.5 43C85.5 66.4728 66.4727 85.5 43 85.5C19.5273 85.5 0.5 66.4728 0.5 43C0.5 19.5273 19.5273 0.500036 43 0.500036ZM43 17.5C45.2015 17.5 47.335 17.7805 49.375 18.3075V24.606L47.6155 26.3655C47.5449 26.4352 47.4754 26.506 47.4072 26.578C44.8882 25.9062 42.2485 25.8221 39.6918 26.3321C37.135 26.842 34.7296 27.9325 32.6611 29.5193C30.5925 31.1061 28.9161 33.1469 27.7612 35.4842C26.6063 37.8216 26.0037 40.393 26 43C26.0017 45.4192 26.5197 47.8101 27.5194 50.0131C28.5191 52.216 29.9774 54.1802 31.797 55.7744C33.6165 57.3686 35.7554 58.5562 38.0706 59.2576C40.3858 59.9591 42.8241 60.1584 45.2225 59.8421C47.6209 59.5258 49.9241 58.7013 51.9784 57.4237C54.0326 56.146 55.7905 54.4446 57.1346 52.4332C58.4787 50.4218 59.378 48.1467 59.7725 45.7599C60.1669 43.3732 60.0475 40.9297 59.422 38.5928L59.6345 38.3845L61.394 36.625H67.6968C69.0262 41.774 68.7127 47.2098 66.7999 52.1718C64.8872 57.1338 61.4711 61.3736 57.0295 64.298C52.588 67.2224 47.3433 68.6851 42.0293 68.4813C36.7154 68.2775 31.5981 66.4175 27.3935 63.1615C23.189 59.9056 20.1076 55.4166 18.5805 50.3227C17.0534 45.2288 17.1571 39.785 18.8769 34.7529C20.5968 29.7209 23.8469 25.3524 28.1723 22.2588C32.4978 19.1653 37.6821 17.5014 43 17.5Z" fill="#0650A0"/>
</svg>
