<svg width="21" height="19" viewBox="0 0 21 19" fill="none" xmlns="http://www.w3.org/2000/svg">
<path d="M18.9634 6.24096L17.5954 2.13596C17.397 1.53844 17.0153 1.01866 16.5045 0.650469C15.9938 0.282277 15.38 0.0844027 14.7504 0.0849621H5.63241C5.0028 0.0844027 4.38902 0.282277 3.87829 0.650469C3.36756 1.01866 2.98585 1.53844 2.78741 2.13596L1.41941 6.24096C1.05602 6.39344 0.745683 6.64972 0.527251 6.97773C0.308819 7.30573 0.191995 7.69088 0.191406 8.08496V13.085C0.191406 13.838 0.614406 14.487 1.23041 14.828C1.21741 14.894 1.19141 14.954 1.19141 15.023V17.085C1.19141 17.3502 1.29676 17.6045 1.4843 17.7921C1.67184 17.9796 1.92619 18.085 2.19141 18.085H3.19141C3.45662 18.085 3.71098 17.9796 3.89851 17.7921C4.08605 17.6045 4.19141 17.3502 4.19141 17.085V15.085H16.1914V17.085C16.1914 17.3502 16.2968 17.6045 16.4843 17.7921C16.6718 17.9796 16.9262 18.085 17.1914 18.085H18.1914C18.4566 18.085 18.711 17.9796 18.8985 17.7921C19.0861 17.6045 19.1914 17.3502 19.1914 17.085V15.023C19.1914 14.954 19.1654 14.893 19.1524 14.828C19.4658 14.6571 19.7276 14.4052 19.9103 14.0986C20.0931 13.792 20.1902 13.4419 20.1914 13.085V8.08496C20.1914 7.25596 19.6834 6.54396 18.9634 6.24096ZM2.19141 13.085V8.08496H18.1914L18.1934 13.085H2.19141ZM5.63241 2.08496H14.7494C15.1804 2.08496 15.5624 2.35896 15.6984 2.76896L16.8044 6.08496H3.57841L4.68341 2.76896C4.74976 2.56976 4.87712 2.39649 5.04746 2.27372C5.21779 2.15095 5.42244 2.08491 5.63241 2.08496Z" fill="#979797"/>
</svg>
