<svg width="35" height="35" viewBox="0 0 35 35" fill="none" xmlns="http://www.w3.org/2000/svg">
<path fill-rule="evenodd" clip-rule="evenodd" d="M4.26398 5.4342C4.26731 5.4342 4.18398 5.52087 4.07898 5.6242C3.67564 6.01587 2.84064 6.83087 2.83223 8.53587C2.81898 10.9209 4.38731 15.3492 11.939 22.8992C19.4556 30.4125 23.8773 31.9992 26.2673 31.9992H26.3023C28.0073 31.9909 28.8206 31.1542 29.214 30.7525C29.334 30.6292 29.4306 30.5392 29.499 30.4825C31.159 28.8125 32.009 27.5692 32.0007 26.7725C31.989 25.9592 30.9773 24.9975 29.579 23.6675C29.134 23.2442 28.6506 22.7842 28.1406 22.2742C26.819 20.9559 26.164 21.1809 24.724 21.6875C22.7323 22.3859 19.999 23.3359 15.7523 19.0875C11.499 14.8375 12.4506 12.1075 13.1473 10.1159C13.6506 8.67587 13.8806 8.0192 12.5573 6.69587C12.039 6.1792 11.574 5.6892 11.1456 5.2392C9.82398 3.8492 8.87064 2.8442 8.06231 2.83254H8.04898C7.25064 2.83254 6.01064 3.68587 4.25564 5.44087C4.26064 5.43587 4.26231 5.4342 4.26398 5.4342ZM26.269 34.4992C22.1156 34.4992 16.7006 31.1925 10.1723 24.6675C3.61898 18.1159 0.307311 12.6842 0.33217 8.52254C0.347311 5.77253 1.78898 4.3642 2.33064 3.83587C2.35898 3.80087 2.45564 3.70587 2.48898 3.67254C4.87898 1.28087 6.49064 0.314202 8.09398 0.33228C9.95564 0.357535 11.2806 1.75087 12.9573 3.51587C13.3723 3.95254 13.8223 4.42754 14.324 4.92754C16.7573 7.36087 16.064 9.34587 15.5073 10.9392C14.9006 12.6775 14.3756 14.1775 17.519 17.3209C20.6656 20.4642 22.1656 19.9392 23.8973 19.3275C25.4923 18.7709 27.4723 18.0742 29.909 20.5075C30.4023 21.0009 30.8706 21.4459 31.3023 21.8575C33.0756 23.5425 34.4756 24.8742 34.4993 26.7409C34.519 28.3325 33.5523 29.9542 31.1656 32.3425L30.109 31.6259L31.0023 32.4992C30.474 33.0409 29.0673 34.4842 26.3156 34.4992H26.269Z" fill="#0650A0"/>
</svg>
