<svg width="41" height="42" viewBox="0 0 41 42" fill="none" xmlns="http://www.w3.org/2000/svg">
<path d="M20.5 0.386231C15.0631 0.386232 9.8488 2.54604 6.00431 6.39054C2.15981 10.235 -1.13374e-06 15.4493 -8.96083e-07 20.8862C-6.58427e-07 26.3232 2.15981 31.5374 6.00431 35.3819C9.84881 39.2264 15.0631 41.3862 20.5 41.3862C25.9369 41.3862 31.1512 39.2264 34.9957 35.3819C38.8402 31.5374 41 26.3232 41 20.8862C41 15.4493 38.8402 10.235 34.9957 6.39054C31.1512 2.54604 25.9369 0.386231 20.5 0.386231ZM29.4687 19.605C29.8086 19.605 30.1344 19.74 30.3747 19.9802C30.615 20.2205 30.75 20.5464 30.75 20.8862C30.75 21.226 30.615 21.5519 30.3747 21.7922C30.1344 22.0325 29.8086 22.1675 29.4687 22.1675L14.6242 22.1675L20.1259 27.6666C20.3665 27.9072 20.5016 28.2335 20.5016 28.5737C20.5016 28.914 20.3665 29.2403 20.1259 29.4809C19.8853 29.7214 19.559 29.8566 19.2187 29.8566C18.8785 29.8566 18.5522 29.7214 18.3116 29.4809L10.6241 21.7934C10.5048 21.6743 10.4101 21.533 10.3455 21.3773C10.281 21.2216 10.2477 21.0548 10.2477 20.8862C10.2477 20.7177 10.281 20.5508 10.3455 20.3952C10.4101 20.2395 10.5048 20.0981 10.6241 19.9791L18.3116 12.2916C18.5522 12.051 18.8785 11.9159 19.2187 11.9159C19.559 11.9159 19.8853 12.051 20.1259 12.2916C20.3665 12.5322 20.5016 12.8585 20.5016 13.1987C20.5016 13.539 20.3665 13.8653 20.1259 14.1059L14.6242 19.605L29.4687 19.605Z" fill="#015AB9"/>
</svg>
