<svg width="90" height="71" viewBox="0 0 90 71" fill="none" xmlns="http://www.w3.org/2000/svg">
<path d="M45 45.125C48.3815 45.125 51.6245 43.7817 54.0156 41.3906C56.4067 38.9995 57.75 35.7565 57.75 32.375C57.75 28.9935 56.4067 25.7505 54.0156 23.3594C51.6245 20.9683 48.3815 19.625 45 19.625C41.6185 19.625 38.3755 20.9683 35.9844 23.3594C33.5933 25.7505 32.25 28.9935 32.25 32.375C32.25 35.7565 33.5933 38.9995 35.9844 41.3906C38.3755 43.7817 41.6185 45.125 45 45.125Z" fill="#0650A0"/>
<path d="M1.9179 26.7554C7.7064 17.6073 21.6485 0.5 45.0002 0.5C68.3518 0.5 82.2939 17.6073 88.0792 26.7554C89.1539 28.4327 89.725 30.383 89.725 32.375C89.725 34.367 89.1539 36.3173 88.0792 37.9946C85.2647 42.4475 80.5153 48.7874 73.6877 54.1233V69.0376C73.6877 69.3106 73.6175 69.579 73.484 69.8172C73.3505 70.0553 73.158 70.2551 72.9251 70.3975C72.6922 70.5399 72.4266 70.62 72.1538 70.6303C71.881 70.6405 71.6101 70.5806 71.3671 70.4561L56.4401 62.8029C52.7043 63.772 48.8596 64.2584 45.0002 64.25C21.6485 64.25 7.7064 47.1427 1.9179 37.9946C0.842885 36.3174 0.271484 34.3671 0.271484 32.375C0.271484 30.3829 0.842885 28.4326 1.9179 26.7554ZM67.3127 32.375C67.3127 26.4574 64.9619 20.7821 60.7775 16.5977C56.5931 12.4133 50.9178 10.0625 45.0002 10.0625C39.0825 10.0625 33.4072 12.4133 29.2228 16.5977C25.0384 20.7821 22.6877 26.4574 22.6877 32.375C22.6877 38.2926 25.0384 43.9679 29.2228 48.1523C33.4072 52.3367 39.0825 54.6875 45.0002 54.6875C50.9178 54.6875 56.5931 52.3367 60.7775 48.1523C64.9619 43.9679 67.3127 38.2926 67.3127 32.375Z" fill="#0650A0"/>
</svg>
