<svg width="32" height="32" viewBox="0 0 32 32" fill="none" xmlns="http://www.w3.org/2000/svg">
<path d="M29.7775 0.298828H1.5271C0.847714 0.298828 0.298828 0.847714 0.298828 1.5271V29.7775C0.298828 30.4569 0.847714 31.0057 1.5271 31.0057H29.7775C30.4569 31.0057 31.0057 30.4569 31.0057 29.7775V1.5271C31.0057 0.847714 30.4569 0.298828 29.7775 0.298828ZM26.2308 9.26141H23.7781C21.8551 9.26141 21.4828 10.1749 21.4828 11.5184V14.4777H26.0735L25.4747 19.1107H21.4828V31.0057H16.6963V19.1145H12.6929V14.4777H16.6963V11.0616C16.6963 7.09657 19.1183 4.93557 22.6573 4.93557C24.3539 4.93557 25.8086 5.06224 26.2347 5.11981V9.26141H26.2308Z" fill="white"/>
</svg>
