<svg width="25" height="20" viewBox="0 0 25 20" fill="none" xmlns="http://www.w3.org/2000/svg">
<g clip-path="url(#clip0_105_5281)">
<path d="M24.0741 19.9999V19.999H24.08V12.664C24.08 9.07569 23.1762 6.31152 18.2681 6.31152C15.9087 6.31152 14.3253 7.41819 13.6789 8.46736H13.6106V6.64652H8.95703V19.999H13.8027V13.3874C13.8027 11.6465 14.1888 9.96319 16.7111 9.96319C19.1963 9.96319 19.2333 11.9499 19.2333 13.499V19.9999H24.0741Z" fill="white"/>
<path d="M1.06641 6.64795H5.91792V20.0004H1.06641V6.64795Z" fill="white"/>
<path d="M3.48959 0C1.93839 0 0.679688 1.07583 0.679688 2.40167C0.679688 3.7275 1.93839 4.82583 3.48959 4.82583C5.04078 4.82583 6.29949 3.7275 6.29949 2.40167C6.29851 1.07583 5.03981 0 3.48959 0V0Z" fill="white"/>
</g>
<defs>
<clipPath id="clip0_105_5281">
<rect width="23.3996" height="20" fill="white" transform="translate(0.679688)"/>
</clipPath>
</defs>
</svg>
