<svg width="38" height="31" viewBox="0 0 38 31" fill="none" xmlns="http://www.w3.org/2000/svg">
<path d="M37.799 4.08529C36.4315 4.69124 34.9625 5.10067 33.4181 5.28573C35.0116 4.33224 36.2037 2.83157 36.7721 1.06373C35.275 1.95299 33.6365 2.57892 31.9278 2.91433C30.7787 1.68747 29.2568 0.874291 27.5982 0.601037C25.9397 0.327783 24.2373 0.609745 22.7554 1.40315C21.2735 2.19655 20.095 3.45701 19.4029 4.98882C18.7108 6.52063 18.5437 8.2381 18.9277 9.87457C15.8942 9.72226 12.9266 8.93379 10.2175 7.56034C7.50837 6.18689 5.11834 4.25915 3.20249 1.90223C2.54741 3.03225 2.17074 4.34241 2.17074 5.73773C2.17001 6.99384 2.47933 8.23071 3.07127 9.3386C3.66321 10.4465 4.51947 11.3911 5.56406 12.0887C4.35261 12.0502 3.16789 11.7229 2.1085 11.134V11.2322C2.10838 12.994 2.71778 14.7015 3.8333 16.0651C4.94883 17.4287 6.50176 18.3643 8.2286 18.7133C7.10478 19.0174 5.92654 19.0622 4.78287 18.8443C5.27008 20.3601 6.21913 21.6857 7.49715 22.6354C8.77516 23.5851 10.3182 24.1114 11.9102 24.1406C9.20767 26.2621 5.87012 27.4129 2.43441 27.4078C1.82581 27.408 1.21772 27.3724 0.613281 27.3014C4.10073 29.5437 8.16037 30.7337 12.3065 30.7291C26.3416 30.7291 34.0142 19.1047 34.0142 9.02296C34.0142 8.69542 34.006 8.36461 33.9913 8.03707C35.4837 6.95778 36.772 5.62129 37.7957 4.0902L37.799 4.08529Z" fill="white"/>
</svg>
